<?xml version="1.0" encoding="UTF-8"?>
<svg id="Ebene_1" data-name="Ebene 1" xmlns="http://www.w3.org/2000/svg" viewBox="0 0 594.96 606.95">
  <defs>
    <style>
      .cls-1 {
        fill: #6fafe0;
      }

      .cls-2 {
        fill: #fff;
      }

      .cls-3 {
        fill: #65a3d6;
      }
    </style>
  </defs>
  <g>
    <g>
      <path class="cls-2" d="M429.66,33.26c1.46,2.29,10.84,18.3,10.72,19.43l-15.63,27.24,16.97,28.58-15.63,27.69c5.47,9.02,12.27,17.75,16.52,27.24l-15.85,27.46-17.19-26.57,16.08-28.13-16.97-27.24,15.63-27.69v-2.23l-16.3-25.68c-1.59-.26-15.12,24.78-15.85,27.91l15.63,25.45.45,2.23-15.63,27.69,16.52,27.69c-1.9,4.29-16.12,25.15-15.63,28.13l15.18,24.11.89,3.57-15.41,26.12-17.42-26.35-15.63,27.69-17.42-27.24-15.63,27.69-16.3-26.57c3.94-9.85,10.73-18.7,15.41-28.36l16.97,26.79,16.08-27.69,16.52,26.79,15.85-26.57c.48-3.44-14.02-23.42-16.08-28.13l15.63-29.03-16.52-26.79,15.63-27.24c-4.15-9.76-10.72-18.88-16.3-27.91l-16.08,27.24-16.52-26.79-15.63,27.24-16.52-26.79-16.08,27.24-16.52-26.79-14.51,25.01c.05-16.33-.68-32.84-.45-49.12l14.96,23.22,16.08-27.24c2.51,4.37,5.18,8.66,7.81,12.95,2.84,4.63,5.26,9.6,8.71,13.84.99-.11,8.4-15.36,9.6-17.42,1.92-3.28,4.26-6.43,6.03-9.82.54-.09,4.98,7.04,5.58,8.04,1.36,2.23,9.9,19.08,11.39,18.76,4.64-6.94,8-14.75,12.28-21.88,1.06-1.77,2.57-3.38,3.35-5.36.79,1.78,2.43,3.42,3.35,4.91,1.57,2.53,11.88,22.33,13.17,22.33,5.1-7.25,8.41-15.82,13.17-23.22.44-.68,2.62-4.27,3.35-4.02.63,1.72,1.94,2.99,2.9,4.47,4.68,7.17,8.19,15.3,13.17,22.33,1.18.2,10.96-18.38,12.28-20.54.54-.88,3.84-6.7,4.24-6.7,1.85,2.63,3.86,5.34,5.58,8.04Z"/>
      <path class="cls-3" d="M311.77.66l14.51,24.11L340.35.21c1.42,0,3.15.45,4.02.45l14.51,24.11L372.5.21c1.34,0,2.68,0,4.02,0l14.51,24.56L404.65.21c1.48,0,2.98,0,4.47,0l14.96,24.11L437.7.21c1.68,0,3.68.44,4.91.45l14.51,23.22,13.17-23.22c1.62,0,3.29,0,4.91,0l14.51,23.22,13.17-23.22c1.91,0,3.88,0,5.81,0l13.62,22.77,13.17-22.77c1.76.01,3.57-.02,5.36,0l14.07,22.33,12.73-22.33c2.16.08,3.88-.25,6.25,0,2.01,2.11,12.8,22.73,14.07,22.33l2.9-4.47c.25,3.28-.08,6.93,0,10.27-1.57-.48-2.27-5.73-4.02-4.24-3.67,3.12-10.37,19.82-14.29,24.56-.3.37-1.04,1.25-1.56,1.12l-15.85-26.12c-6.39,8-10.79,18.08-16.52,26.79l16.52,27.69c-1.86,3.39-3.95,6.65-5.81,10.05-3.9-9.45-9.34-18.52-17.86-24.56,1.05-1.91,6.81-12.01,6.7-13.17l-15.85-26.12-15.85,27.24h-.89c-4-9.32-10.97-18.01-15.85-27.24-3.95,5.92-7.3,12.21-10.94,18.31-2.92-1.98-8.9-1.79-11.61-3.13-2.55-1.26-9.16-14.65-10.05-14.74-2.79,3.41-4.65,7.43-6.92,11.16l-20.54-3.13c-1.72-2.7-3.73-5.4-5.58-8.04-.4,0-3.7,5.81-4.24,6.7l-25.45-1.79c-.96-1.48-2.28-2.75-2.9-4.47-.73-.26-2.91,3.34-3.35,4.02l-26.35.89c-.92-1.49-2.56-3.13-3.35-4.91-.78,1.98-2.29,3.59-3.35,5.36l-23.67,3.13c-.6-.99-5.04-8.13-5.58-8.04-1.77,3.4-4.11,6.55-6.03,9.82l-18.31,3.57c-2.64-4.29-5.3-8.58-7.81-12.95l-16.08,27.24-14.96-23.22c.04-2.62-.08-5.53,0-8.04l13.4-21.88c.73-.17,1.85.11,2.68,0l14.96,25.01L308.2.21c1.31-.01,2.89.45,3.57.45Z"/>
      <path class="cls-3" d="M413.58,325.75c-1.62,0-3.28,0-4.91,0l-14.07-23.67-13.62,23.67c-1.63,0-3.28,0-4.91,0l-14.07-23.22-13.62,23.22c-1.93,0-3.87,0-5.81,0l-13.62-22.33-12.28,22.33c-2.39-.02-4.76.02-7.14,0l-13.17-22.33-12.73,22.33c-1.21-.08-2.8-.28-4.02-.45-7.66-4.26-11.08-15.03-16.08-22.1l15.18-26.35,18.09,25.23,15.41-25.23-.45-1.12h.89l16.75,26.79,16.08-26.79,16.52,25.9c4.53-7.34,9.25-14.67,13.62-22.1.71-1.2,1.67-4.62,2.23-5.58.03-.04.87-.4.89-.45l15.85,27.69,15.41-26.57h1.79l15.63,26.35-13.84,24.78Z"/>
      <path class="cls-2" d="M469.85,261.89c1.17,2.02,6.46,9.7,6.25,11.39l-15.63,28.13,14.29,24.34c-9.66.02-19.4-.46-29.03-.45l14.29-25.23-16.3-26.12-15.85,27.46,13.84,24.34c-9.37.01-18.76.02-28.13,0l13.84-24.78-15.63-26.35h-1.79l-15.41,26.57-15.85-27.69c5.14-8.77,10.02-17.72,15.41-26.35l16.52,25.9,16.52-26.35c4.21,6.57,8.46,13.12,12.73,19.65.57.87,3.33,6.91,4.24,6.7,2.46-4.44,4.78-9.03,7.37-13.4,2.73-4.61,5.56-9.2,8.26-13.84,3.44,5.27,6.88,10.64,10.05,16.08Z"/>
      <path class="cls-2" d="M263.09,192.68c-.02-17.56-.03-35.14,0-52.69l15.85,25.01,15.63-26.79,16.52,26.79,16.08-27.24,16.52,26.79,16.08-27.24,16.3,26.57-15.85,27.91-16.52-26.79-16.08,27.24-16.97-26.35-15.63,26.79-16.08-26.79-15.85,26.79Z"/>
      <path class="cls-2" d="M263.09,136.41c.03-17.11-.05-34.24,0-51.35l15.41,24.56,16.08-27.24,16.08,26.79,16.08-27.24,16.52,26.79,15.63-27.24,16.3,26.12c.51,3.3-13.69,23.49-15.41,28.36l-16.52-26.79-16.08,27.69-16.52-26.79-16.08,27.24-16.08-26.79-15.41,25.9Z"/>
      <path class="cls-2" d="M590.87,28.79c.37,15.29-.07,30.69,0,46l-2.46,2.68-16.97-26.35c-1.99,3.96-16.27,25.38-15.85,27.91l16.3,26.12,15.85-26.57,3.13,3.35c.06,16.07-.03,32.16,0,48.23l-2.46,2.68-16.08-26.79c-1.06-.17-7.32,12.26-8.26,13.84-2.73,4.61-5.62,9.17-8.26,13.84l-16.3-26.57c-.28-1.97,8.26-15.66,9.82-18.53,1.85-3.39,3.95-6.65,5.81-10.05l-16.52-27.69c5.73-8.72,10.14-18.8,16.52-26.79l15.85,26.12c.52.14,1.26-.75,1.56-1.12,3.92-4.74,10.62-21.44,14.29-24.56,1.75-1.49,2.45,3.77,4.02,4.24Z"/>
      <path class="cls-2" d="M311.77,275.74l.45,1.12-15.41,25.23-18.09-25.23-15.18,26.35c4.99,7.07,8.41,17.84,16.08,22.1-9.29-1.23-13.52-5.18-16.52-14.07.29-38.78-.39-77.56-.45-116.33l16.75,26.35,16.3-27.02,15.63,26.79c-4.89,7.7-8.49,16.46-13.4,24.11-.43.68-1.88,3.52-2.68,3.13l-15.85-26.12-15.85,28.36,15.85,24.78,16.08-25.45,16.3,25.9Z"/>
      <path class="cls-2" d="M590.87,191.78c-.07,39.52.04,79.03,0,118.56-2.38,8.69-7.21,13.61-16.08,14.96l15.18-26.12-16.08-27.24,16.08-28.13-16.75-26.57-16.08,27.24-16.3-25.9c4.09-7.02,10.86-14.4,14.29-21.66,1.13-2.39,1-3.82,1.79-6.03,5.2,8.53,10.28,17.16,15.85,25.45l16.52-26.79,1.56,2.23Z"/>
      <path class="cls-3" d="M590.87,74.79c.01,2.38,0,4.77,0,7.14l-3.13-3.35-15.85,26.57-16.3-26.12c-.42-2.53,13.87-23.95,15.85-27.91l16.97,26.35,2.46-2.68Z"/>
      <path class="cls-3" d="M573,162.31c2.27,1.34,14.75,26.33,16.3,26.35l1.56-2.23c0,1.78,0,3.58,0,5.36l-1.56-2.23-16.52,26.79c-5.58-8.3-10.66-16.92-15.85-25.45-.69-1.13-.41-1.28-.45-1.34l15.63-27.24c.28.04.77-.07.89,0Z"/>
      <path class="cls-3" d="M445.74,325.3c-1.24,0-2.48.44-4.02.45l-13.84-24.34,15.85-27.46,16.3,26.12-14.29,25.23Z"/>
      <path class="cls-2" d="M590.87,136.86c.03,16.51.03,33.05,0,49.57l-1.56,2.23c-1.55-.01-14.03-25-16.3-26.35,1.61-3.9,3.41-7.88,5.36-11.61,3.03-5.78,6.42-11.64,10.05-16.97l2.46,3.13Z"/>
      <path class="cls-3" d="M590.87,130.16c0,2.23,0,4.47,0,6.7l-2.46-3.13c-3.63,5.33-7.02,11.19-10.05,16.97-1.74-11.83-7.78-21.17-14.29-30.81.94-1.58,7.2-14.01,8.26-13.84l16.08,26.79,2.46-2.68Z"/>
      <path class="cls-2" d="M308.2.21l-14.51,25.45-14.96-25.01c9.51-1.23,19.85-.34,29.47-.45Z"/>
      <path class="cls-2" d="M340.35.21l-14.07,24.56-14.51-24.11c9.5-.09,19.05-.41,28.58-.45Z"/>
      <path class="cls-2" d="M372.5.21l-13.62,24.56-14.51-24.11c9.34-.04,18.76-.42,28.13-.45Z"/>
      <path class="cls-2" d="M539.07,325.75c-9.52.08-19.11-.49-28.58-.45l14.51-24.56,14.07,25.01Z"/>
      <path class="cls-2" d="M506.91,325.75c-9.51.04-19.11-.47-28.58-.45l14.07-24.56,14.51,25.01Z"/>
      <path class="cls-2" d="M571.66,325.75c-8.88.74-19.46-.1-28.58,0l14.51-24.56,14.07,24.56Z"/>
      <path class="cls-2" d="M404.65.21l-13.62,24.56L376.52.21c9.37-.02,18.76.02,28.13,0Z"/>
      <path class="cls-2" d="M437.7.21l-13.62,24.11L409.12.21c9.52-.02,19.06-.01,28.58,0Z"/>
      <path class="cls-2" d="M470.3.66l-13.17,23.22-14.51-23.22c9.21.01,18.47-.02,27.69,0Z"/>
      <path class="cls-2" d="M408.67,325.75c-9.22-.02-18.46.02-27.69,0l13.62-23.67,14.07,23.67Z"/>
      <path class="cls-2" d="M502.89.66l-13.17,23.22-14.51-23.22c9.21.02,18.47-.03,27.69,0Z"/>
      <path class="cls-2" d="M376.07,325.75c-9.22-.02-18.47.04-27.69,0l13.62-23.22,14.07,23.22Z"/>
      <path class="cls-2" d="M535.49.66l-13.17,22.77-13.62-22.77c8.92.03,17.86-.06,26.79,0Z"/>
      <path class="cls-2" d="M567.65.66l-12.73,22.33-14.07-22.33c8.98.08,17.75-.35,26.79,0Z"/>
      <path class="cls-2" d="M342.58,325.75c-8.63-.04-17.28.07-25.9,0l12.28-22.33,13.62,22.33Z"/>
      <path class="cls-2" d="M309.54,325.75c-8.39-.09-17.66.57-25.9,0l12.73-22.33,13.17,22.33Z"/>
      <path class="cls-2" d="M590.87,18.52l-2.9,4.47c-1.27.4-12.05-20.22-14.07-22.33,11.48,1.2,16.08,6.23,16.97,17.86Z"/>
      <path class="cls-2" d="M262.65,22.54c.3-9.66,2.31-19.35,13.4-21.88l-13.4,21.88Z"/>
      <path class="cls-2" d="M572.11,162.31l-15.63,27.24c-5.45-8.91-11.11-17.72-16.3-26.79l-16.52,26.35-16.08-26.79-15.63,26.79-16.52-26.79-16.08,27.24-16.3-27.46,15.85-27.02,16.52,26.35,15.63-26.35,16.52,26.79,16.08-26.79,16.08,26.79,16.52-27.24,16.3,26.57-.45,1.12Z"/>
      <path class="cls-2" d="M377.86,273.95c-.57.97-1.53,4.38-2.23,5.58-4.37,7.44-9.09,14.76-13.62,22.1l-16.52-25.9-16.08,26.79-16.75-26.79,15.41-27.24,16.97,26.79,16.08-27.24,16.75,25.9Z"/>
      <path class="cls-2" d="M505.57,52.01l-15.41,26.35-16.52-26.35-16.08,27.24-16.75-26.57c-.12-.93,8.17-14.31,9.38-16.3,2.27-3.73,4.13-7.76,6.92-11.16.89.08,7.5,13.48,10.05,14.74l6.48,11.61c.62.15,4.54-7.49,5.14-8.48,3.64-6.1,6.99-12.39,10.94-18.31,4.88,9.23,11.86,17.92,15.85,27.24Z"/>
      <path class="cls-2" d="M539.96,218.58l-15.41,26.35c-2.39-4.69-5.51-8.94-8.26-13.4-.86-1.39-7.48-14.03-8.26-13.84l-14.51,26.35c-.19.14-.64.38-.89.45-2.38-4.35-16.59-25.21-16.08-28.36l15.41-25.68,16.08,26.79,16.08-26.35,15.85,27.69Z"/>
      <path class="cls-2" d="M491.73,245.82c.24-.16.6-.37.89-.45l15.63,26.12v2.23l-15.41,26.57-15.85-26.57.45-3.13,14.29-24.78Z"/>
      <g>
        <path class="cls-1" d="M450.2,36.38c-1.21,1.99-9.5,15.37-9.38,16.3l16.75,26.57,16.08-27.24,16.52,26.35,15.41-26.35h.89l16.3,26.35c2.73-4.8,6.06-9.47,8.71-14.29,8.52,6.04,13.96,15.11,17.86,24.56-1.57,2.87-10.11,16.57-9.82,18.53l16.3,26.57c2.65-4.67,5.53-9.23,8.26-13.84,6.51,9.64,12.55,18.99,14.29,30.81-1.95,3.73-3.75,7.71-5.36,11.61-.12-.07-.62.04-.89,0l.45-1.12-16.3-26.57-16.52,27.24-16.08-26.79-16.08,26.79-16.52-26.79-15.63,26.35-16.52-26.35-15.85,27.02,16.3,27.46,16.08-27.24,16.52,26.79,15.63-26.79,16.08,26.79,16.52-26.35c5.19,9.08,10.85,17.88,16.3,26.79.04.06-.24.21.45,1.34-.79,2.21-.66,3.64-1.79,6.03-3.43,7.26-10.2,14.63-14.29,21.66h-.89l-15.85-27.69-16.08,26.35-16.08-26.79-15.41,25.68c-.51,3.15,13.69,24.01,16.08,28.36v.89c-.29.07-.66.29-.89.45-7.1,4.84-13.46,12.39-21.88,16.08-3.16-5.44-6.6-10.8-10.05-16.08-2.7,4.64-5.53,9.23-8.26,13.84l-11.61,6.7c-4.27-6.53-8.52-13.08-12.73-19.65l-16.52,26.35-16.52-25.9c-5.39,8.63-10.27,17.57-15.41,26.35-.03.04-.87.4-.89.45l-16.75-25.9-16.08,27.24-16.97-26.79-15.41,27.24h-.89l-16.3-25.9-16.08,25.45-15.85-24.78,15.85-28.36,15.85,26.12c.8.39,2.25-2.45,2.68-3.13,4.91-7.66,8.5-16.41,13.4-24.11l-15.63-26.79-16.3,27.02-16.75-26.35c0-.76.45-1.18.45-2.23l15.85-26.79,16.08,26.79,15.63-26.79,16.97,26.35,16.08-27.24,16.52,26.79,15.85-27.91-16.3-26.57-16.08,27.24-16.52-26.79-16.08,27.24-16.52-26.79-15.63,26.79-15.85-25.01c0-1.19,0-2.39,0-3.57l15.41-25.9,16.08,26.79,16.08-27.24,16.52,26.79,16.08-27.69,16.52,26.79c1.72-4.87,15.92-25.05,15.41-28.36l-16.3-26.12-15.63,27.24-16.52-26.79-16.08,27.24-16.08-26.79-16.08,27.24-15.41-24.56c0-1.78,0-3.58,0-5.36l14.51-25.01,16.52,26.79,16.08-27.24,16.52,26.79,15.63-27.24,16.52,26.79,16.08-27.24c5.58,9.03,12.15,18.15,16.3,27.91l-15.63,27.24,16.52,26.79-15.63,29.03c2.05,4.71,16.56,24.69,16.08,28.13l-15.85,26.57-16.52-26.79-16.08,27.69-16.97-26.79c-4.68,9.66-11.47,18.5-15.41,28.36l16.3,26.57,15.63-27.69,17.42,27.24,15.63-27.69,17.42,26.35,15.41-26.12-.89-3.57-15.18-24.11c-.49-2.98,13.73-23.84,15.63-28.13l-16.52-27.69,15.63-27.69-.45-2.23-15.63-25.45c.73-3.13,14.26-28.17,15.85-27.91l16.3,25.68v2.23l-15.63,27.69,16.97,27.24-16.08,28.13,17.19,26.57,15.85-27.46c-4.25-9.49-11.05-18.22-16.52-27.24l15.63-27.69-16.97-28.58,15.63-27.24c.12-1.12-9.25-17.13-10.72-19.43l20.54,3.13Z"/>
        <g>
          <polygon class="cls-2" points="426.76 191.78 443.06 217.01 427.2 245.82 410.01 219.69 426.76 191.78"/>
          <path class="cls-2" d="M459.36,190.44l16.3,26.12-15.85,28.36-16.3-26.57c-.42-1.84,13.84-24.54,15.85-27.91Z"/>
          <polygon class="cls-2" points="458.02 79.7 474.32 105.82 458.91 134.18 442.16 107.16 458.02 79.7"/>
          <path class="cls-2" d="M490.17,79.7l16.3,25.68c.61,3.09-13.41,24-15.41,28.36l-16.3-26.57,15.41-27.46Z"/>
          <path class="cls-2" d="M522.77,79.25l16.3,27.02-15.41,27.46-16.3-26.57c3.91-9.76,10.45-18.56,15.41-27.91Z"/>
        </g>
      </g>
      <path class="cls-2" d="M531.47,64.07c-2.65,4.82-5.98,9.48-8.71,14.29l-16.3-26.35,15.85-27.24,15.85,26.12c.11,1.16-5.65,11.26-6.7,13.17Z"/>
      <path class="cls-3" d="M451.54,259.66c-2.58,4.36-4.9,8.96-7.37,13.4-.91.22-3.67-5.82-4.24-6.7l11.61-6.7Z"/>
      <path class="cls-1" d="M388.13,29.68c-4.76,7.4-8.07,15.97-13.17,23.22-1.3,0-11.61-19.79-13.17-22.33l26.35-.89Z"/>
      <path class="cls-1" d="M419.84,31.92c-1.32,2.16-11.1,20.74-12.28,20.54-4.98-7.03-8.5-15.15-13.17-22.33l25.45,1.79Z"/>
      <path class="cls-1" d="M355.08,31.02c-4.28,7.13-7.64,14.94-12.28,21.88-1.49.32-10.03-16.52-11.39-18.76l23.67-3.13Z"/>
      <path class="cls-1" d="M319.81,35.93c-1.2,2.06-8.61,17.31-9.6,17.42-3.44-4.24-5.87-9.22-8.71-13.84l18.31-3.57Z"/>
      <path class="cls-1" d="M478.78,43.08c-.6,1-4.51,8.63-5.14,8.48l-6.48-11.61c2.71,1.34,8.69,1.14,11.61,3.13Z"/>
      <g>
        <path class="cls-3" d="M574.79,325.3c-.86.13-2.38.38-3.13.45l-14.07-24.56-14.51,24.56c-1.31.01-2.69-.01-4.02,0l-14.07-25.01-14.51,24.56c-1.22,0-2.5.44-3.57.45l-14.51-25.01-14.07,24.56c-1.39,0-2.64.44-3.57.45l-14.29-24.34,15.63-28.13c.21-1.68-5.08-9.37-6.25-11.39,8.42-3.69,14.78-11.23,21.88-16.08l-14.29,24.78-.45,3.13,15.85,26.57,15.41-26.57v-2.23l-15.63-26.12v-.89c.26-.06.71-.31.89-.45,1.67-1.27,7.57-3.06,10.05-4.47,4.35-2.48,8.28-5.71,12.73-8.04,2.75,4.45,5.87,8.71,8.26,13.4l15.41-26.35h.89l16.3,25.9,16.08-27.24,16.75,26.57-16.08,28.13,16.08,27.24-15.18,26.12Z"/>
        <polygon class="cls-2" points="557.15 245.37 573.45 271.94 557.6 300.3 541.3 273.73 541.3 271.94 557.15 245.37"/>
        <path class="cls-2" d="M524.55,245.82l15.85,26.12c.51,2.92-13.26,23.73-15.41,27.91l-15.85-26.57c4.15-9.42,10.03-18.53,15.41-27.46Z"/>
      </g>
      <path class="cls-1" d="M516.29,231.53c-4.44,2.33-8.37,5.56-12.73,8.04-2.48,1.41-8.37,3.2-10.05,4.47l14.51-26.35c.78-.19,7.4,12.46,8.26,13.84Z"/>
    </g>
    <g>
      <path class="cls-2" d="M433.6,309.78c1.46,2.29,10.84,18.3,10.72,19.43l-15.63,27.24,16.97,28.58-15.63,27.69c5.47,9.02,12.27,17.75,16.52,27.24l-15.85,27.46-17.19-26.57,16.08-28.13-16.97-27.24,15.63-27.69v-2.23l-16.3-25.68c-1.59-.26-15.12,24.78-15.85,27.91l15.63,25.45.45,2.23-15.63,27.69,16.52,27.69c-1.9,4.29-16.12,25.15-15.63,28.13l15.18,24.11.89,3.57-15.41,26.12-17.42-26.35-15.63,27.69-17.42-27.24-15.63,27.69-16.3-26.57c3.94-9.85,10.73-18.7,15.41-28.36l16.97,26.79,16.08-27.69,16.52,26.79,15.85-26.57c.48-3.44-14.02-23.42-16.08-28.13l15.63-29.03-16.52-26.79,15.63-27.24c-4.15-9.76-10.72-18.88-16.3-27.91l-16.08,27.24-16.52-26.79-15.63,27.24-16.52-26.79-16.08,27.24-16.52-26.79-14.51,25.01c.05-16.33-.68-32.84-.45-49.12l14.96,23.22,16.08-27.24c2.51,4.37,5.18,8.66,7.81,12.95,2.84,4.63,5.26,9.6,8.71,13.84.99-.11,8.4-15.36,9.6-17.42,1.92-3.28,4.26-6.43,6.03-9.82.54-.09,4.98,7.04,5.58,8.04,1.36,2.23,9.9,19.08,11.39,18.76,4.64-6.94,8-14.75,12.28-21.88,1.06-1.77,2.57-3.38,3.35-5.36.79,1.78,2.43,3.42,3.35,4.91,1.57,2.53,11.88,22.33,13.17,22.33,5.1-7.25,8.41-15.82,13.17-23.22.44-.68,2.62-4.27,3.35-4.02.63,1.72,1.94,2.99,2.9,4.47,4.68,7.17,8.19,15.3,13.17,22.33,1.18.2,10.96-18.38,12.28-20.54.54-.88,3.84-6.7,4.24-6.7,1.85,2.63,3.86,5.34,5.58,8.04Z"/>
      <path class="cls-3" d="M315.71,277.18l14.51,24.11,14.07-24.56c1.42,0,3.15.45,4.02.45l14.51,24.11,13.62-24.56c1.34,0,2.68,0,4.02,0l14.51,24.56,13.62-24.56c1.48,0,2.98,0,4.47,0l14.96,24.11,13.62-24.11c1.68,0,3.68.44,4.91.45l14.51,23.22,13.17-23.22c1.62,0,3.29,0,4.91,0l14.51,23.22,13.17-23.22c1.91,0,3.88,0,5.81,0l13.62,22.77,13.17-22.77c1.76.01,3.57-.02,5.36,0l14.07,22.33,12.73-22.33c2.16.08,3.88-.25,6.25,0,2.01,2.11,12.8,22.73,14.07,22.33l2.9-4.47c.25,3.28-.08,6.93,0,10.27-1.57-.48-2.27-5.73-4.02-4.24-3.67,3.12-10.37,19.82-14.29,24.56-.3.37-1.04,1.25-1.56,1.12l-15.85-26.12c-6.39,8-10.79,18.08-16.52,26.79l16.52,27.69c-1.86,3.39-3.95,6.65-5.81,10.05-3.9-9.45-9.34-18.52-17.86-24.56,1.05-1.91,6.81-12.01,6.7-13.17l-15.85-26.12-15.85,27.24h-.89c-4-9.32-10.97-18.01-15.85-27.24-3.95,5.92-7.3,12.21-10.94,18.31-2.92-1.98-8.9-1.79-11.61-3.13-2.55-1.26-9.16-14.65-10.05-14.74-2.79,3.41-4.65,7.43-6.92,11.16l-20.54-3.13c-1.72-2.7-3.73-5.4-5.58-8.04-.4,0-3.7,5.81-4.24,6.7l-25.45-1.79c-.96-1.48-2.28-2.75-2.9-4.47-.73-.26-2.91,3.34-3.35,4.02l-26.35.89c-.92-1.49-2.56-3.13-3.35-4.91-.78,1.98-2.29,3.59-3.35,5.36l-23.67,3.13c-.6-.99-5.04-8.13-5.58-8.04-1.77,3.4-4.11,6.55-6.03,9.82l-18.31,3.57c-2.64-4.29-5.3-8.58-7.81-12.95l-16.08,27.24-14.96-23.22c.04-2.62-.08-5.53,0-8.04l13.4-21.88c.73-.17,1.85.11,2.68,0l14.96,25.01,14.51-25.45c1.31-.01,2.89.45,3.57.45Z"/>
      <path class="cls-3" d="M417.53,602.28c-1.62,0-3.28,0-4.91,0l-14.07-23.67-13.62,23.67c-1.63,0-3.28,0-4.91,0l-14.07-23.22-13.62,23.22c-1.93,0-3.87,0-5.81,0l-13.62-22.33-12.28,22.33c-2.39-.02-4.76.02-7.14,0l-13.17-22.33-12.73,22.33c-1.21-.08-2.8-.28-4.02-.45-7.66-4.26-11.08-15.03-16.08-22.1l15.18-26.35,18.09,25.23,15.41-25.23-.45-1.12h.89l16.75,26.79,16.08-26.79,16.52,25.9c4.53-7.34,9.25-14.67,13.62-22.1.71-1.2,1.67-4.62,2.23-5.58.03-.04.87-.4.89-.45l15.85,27.69,15.41-26.57h1.79l15.63,26.35-13.84,24.78Z"/>
      <path class="cls-2" d="M473.79,538.42c1.17,2.02,6.46,9.7,6.25,11.39l-15.63,28.13,14.29,24.34c-9.66.02-19.4-.46-29.03-.45l14.29-25.23-16.3-26.12-15.85,27.46,13.84,24.34c-9.37.01-18.76.02-28.13,0l13.84-24.78-15.63-26.35h-1.79l-15.41,26.57-15.85-27.69c5.14-8.77,10.02-17.72,15.41-26.35l16.52,25.9,16.52-26.35c4.21,6.57,8.46,13.12,12.73,19.65.57.87,3.33,6.91,4.24,6.7,2.46-4.44,4.78-9.03,7.37-13.4,2.73-4.61,5.56-9.2,8.26-13.84,3.44,5.27,6.88,10.64,10.05,16.08Z"/>
      <path class="cls-2" d="M267.04,469.2c-.02-17.56-.03-35.14,0-52.69l15.85,25.01,15.63-26.79,16.52,26.79,16.08-27.24,16.52,26.79,16.08-27.24,16.3,26.57-15.85,27.91-16.52-26.79-16.08,27.24-16.97-26.35-15.63,26.79-16.08-26.79-15.85,26.79Z"/>
      <path class="cls-2" d="M267.04,412.94c.03-17.11-.05-34.24,0-51.35l15.41,24.56,16.08-27.24,16.08,26.79,16.08-27.24,16.52,26.79,15.63-27.24,16.3,26.12c.51,3.3-13.69,23.49-15.41,28.36l-16.52-26.79-16.08,27.69-16.52-26.79-16.08,27.24-16.08-26.79-15.41,25.9Z"/>
      <path class="cls-2" d="M594.81,305.32c.37,15.29-.07,30.69,0,46l-2.46,2.68-16.97-26.35c-1.99,3.96-16.27,25.38-15.85,27.91l16.3,26.12,15.85-26.57,3.13,3.35c.06,16.07-.03,32.16,0,48.23l-2.46,2.68-16.08-26.79c-1.06-.17-7.32,12.26-8.26,13.84-2.73,4.61-5.62,9.17-8.26,13.84l-16.3-26.57c-.28-1.97,8.26-15.66,9.82-18.53,1.85-3.39,3.95-6.65,5.81-10.05l-16.52-27.69c5.73-8.72,10.14-18.8,16.52-26.79l15.85,26.12c.52.14,1.26-.75,1.56-1.12,3.92-4.74,10.62-21.44,14.29-24.56,1.75-1.49,2.45,3.77,4.02,4.24Z"/>
      <path class="cls-2" d="M315.71,552.26l.45,1.12-15.41,25.23-18.09-25.23-15.18,26.35c4.99,7.07,8.41,17.84,16.08,22.1-9.29-1.23-13.52-5.18-16.52-14.07.29-38.78-.39-77.56-.45-116.33l16.75,26.35,16.3-27.02,15.63,26.79c-4.89,7.7-8.49,16.46-13.4,24.11-.43.68-1.88,3.52-2.68,3.13l-15.85-26.12-15.85,28.36,15.85,24.78,16.08-25.45,16.3,25.9Z"/>
      <path class="cls-2" d="M594.81,468.31c-.07,39.52.04,79.03,0,118.56-2.38,8.69-7.21,13.61-16.08,14.96l15.18-26.12-16.08-27.24,16.08-28.13-16.75-26.57-16.08,27.24-16.3-25.9c4.09-7.02,10.86-14.4,14.29-21.66,1.13-2.39,1-3.82,1.79-6.03,5.2,8.53,10.28,17.16,15.85,25.45l16.52-26.79,1.56,2.23Z"/>
      <path class="cls-3" d="M594.81,351.31c.01,2.38,0,4.77,0,7.14l-3.13-3.35-15.85,26.57-16.3-26.12c-.42-2.53,13.87-23.95,15.85-27.91l16.97,26.35,2.46-2.68Z"/>
      <path class="cls-3" d="M576.95,438.84c2.27,1.34,14.75,26.33,16.3,26.35l1.56-2.23c0,1.78,0,3.58,0,5.36l-1.56-2.23-16.52,26.79c-5.58-8.3-10.66-16.92-15.85-25.45-.69-1.13-.41-1.28-.45-1.34l15.63-27.24c.28.04.77-.07.89,0Z"/>
      <path class="cls-3" d="M449.68,601.83c-1.24,0-2.48.44-4.02.45l-13.84-24.34,15.85-27.46,16.3,26.12-14.29,25.23Z"/>
      <path class="cls-2" d="M594.81,413.38c.03,16.51.03,33.05,0,49.57l-1.56,2.23c-1.55-.01-14.03-25-16.3-26.35,1.61-3.9,3.41-7.88,5.36-11.61,3.03-5.78,6.42-11.64,10.05-16.97l2.46,3.13Z"/>
      <path class="cls-3" d="M594.81,406.68c0,2.23,0,4.47,0,6.7l-2.46-3.13c-3.63,5.33-7.02,11.19-10.05,16.97-1.74-11.83-7.78-21.17-14.29-30.81.94-1.58,7.2-14.01,8.26-13.84l16.08,26.79,2.46-2.68Z"/>
      <path class="cls-2" d="M312.14,276.74l-14.51,25.45-14.96-25.01c9.51-1.23,19.85-.34,29.47-.45Z"/>
      <path class="cls-2" d="M344.29,276.74l-14.07,24.56-14.51-24.11c9.5-.09,19.05-.41,28.58-.45Z"/>
      <path class="cls-2" d="M376.45,276.74l-13.62,24.56-14.51-24.11c9.34-.04,18.76-.42,28.13-.45Z"/>
      <path class="cls-2" d="M543.01,602.28c-9.52.08-19.11-.49-28.58-.45l14.51-24.56,14.07,25.01Z"/>
      <path class="cls-2" d="M510.86,602.28c-9.51.04-19.11-.47-28.58-.45l14.07-24.56,14.51,25.01Z"/>
      <path class="cls-2" d="M575.61,602.28c-8.88.74-19.46-.1-28.58,0l14.51-24.56,14.07,24.56Z"/>
      <path class="cls-2" d="M408.6,276.74l-13.62,24.56-14.51-24.56c9.37-.02,18.76.02,28.13,0Z"/>
      <path class="cls-2" d="M441.64,276.74l-13.62,24.11-14.96-24.11c9.52-.02,19.06-.01,28.58,0Z"/>
      <path class="cls-2" d="M474.24,277.18l-13.17,23.22-14.51-23.22c9.21.01,18.47-.02,27.69,0Z"/>
      <path class="cls-2" d="M412.62,602.28c-9.22-.02-18.46.02-27.69,0l13.62-23.67,14.07,23.67Z"/>
      <path class="cls-2" d="M506.84,277.18l-13.17,23.22-14.51-23.22c9.21.02,18.47-.03,27.69,0Z"/>
      <path class="cls-2" d="M380.02,602.28c-9.22-.02-18.47.04-27.69,0l13.62-23.22,14.07,23.22Z"/>
      <path class="cls-2" d="M539.44,277.18l-13.17,22.77-13.62-22.77c8.92.03,17.86-.06,26.79,0Z"/>
      <path class="cls-2" d="M571.59,277.18l-12.73,22.33-14.07-22.33c8.98.08,17.75-.35,26.79,0Z"/>
      <path class="cls-2" d="M346.53,602.28c-8.63-.04-17.28.07-25.9,0l12.28-22.33,13.62,22.33Z"/>
      <path class="cls-2" d="M313.48,602.28c-8.39-.09-17.66.57-25.9,0l12.73-22.33,13.17,22.33Z"/>
      <path class="cls-2" d="M594.81,295.05l-2.9,4.47c-1.27.4-12.05-20.22-14.07-22.33,11.48,1.2,16.08,6.23,16.97,17.86Z"/>
      <path class="cls-2" d="M266.59,299.06c.3-9.66,2.31-19.35,13.4-21.88l-13.4,21.88Z"/>
      <path class="cls-2" d="M576.06,438.84l-15.63,27.24c-5.45-8.91-11.11-17.72-16.3-26.79l-16.52,26.35-16.08-26.79-15.63,26.79-16.52-26.79-16.08,27.24-16.3-27.46,15.85-27.02,16.52,26.35,15.63-26.35,16.52,26.79,16.08-26.79,16.08,26.79,16.52-27.24,16.3,26.57-.45,1.12Z"/>
      <path class="cls-2" d="M381.8,550.48c-.57.97-1.53,4.38-2.23,5.58-4.37,7.44-9.09,14.76-13.62,22.1l-16.52-25.9-16.08,26.79-16.75-26.79,15.41-27.24,16.97,26.79,16.08-27.24,16.75,25.9Z"/>
      <path class="cls-2" d="M509.52,328.54l-15.41,26.35-16.52-26.35-16.08,27.24-16.75-26.57c-.12-.93,8.17-14.31,9.38-16.3,2.27-3.73,4.13-7.76,6.92-11.16.89.08,7.5,13.48,10.05,14.74l6.48,11.61c.62.15,4.54-7.49,5.14-8.48,3.64-6.1,6.99-12.39,10.94-18.31,4.88,9.23,11.86,17.92,15.85,27.24Z"/>
      <path class="cls-2" d="M543.9,495.1l-15.41,26.35c-2.39-4.69-5.51-8.94-8.26-13.4-.86-1.39-7.48-14.03-8.26-13.84l-14.51,26.35c-.19.14-.64.38-.89.45-2.38-4.35-16.59-25.21-16.08-28.36l15.41-25.68,16.08,26.79,16.08-26.35,15.85,27.69Z"/>
      <path class="cls-2" d="M495.68,522.34c.24-.16.6-.37.89-.45l15.63,26.12v2.23l-15.41,26.57-15.85-26.57.45-3.13,14.29-24.78Z"/>
      <g>
        <path class="cls-1" d="M454.15,312.91c-1.21,1.99-9.5,15.37-9.38,16.3l16.75,26.57,16.08-27.24,16.52,26.35,15.41-26.35h.89l16.3,26.35c2.73-4.8,6.06-9.47,8.71-14.29,8.52,6.04,13.96,15.11,17.86,24.56-1.57,2.87-10.11,16.57-9.82,18.53l16.3,26.57c2.65-4.67,5.53-9.23,8.26-13.84,6.51,9.64,12.55,18.99,14.29,30.81-1.95,3.73-3.75,7.71-5.36,11.61-.12-.07-.62.04-.89,0l.45-1.12-16.3-26.57-16.52,27.24-16.08-26.79-16.08,26.79-16.52-26.79-15.63,26.35-16.52-26.35-15.85,27.02,16.3,27.46,16.08-27.24,16.52,26.79,15.63-26.79,16.08,26.79,16.52-26.35c5.19,9.08,10.85,17.88,16.3,26.79.04.06-.24.21.45,1.34-.79,2.21-.66,3.64-1.79,6.03-3.43,7.26-10.2,14.63-14.29,21.66h-.89l-15.85-27.69-16.08,26.35-16.08-26.79-15.41,25.68c-.51,3.15,13.69,24.01,16.08,28.36v.89c-.29.07-.66.29-.89.45-7.1,4.84-13.46,12.39-21.88,16.08-3.16-5.44-6.6-10.8-10.05-16.08-2.7,4.64-5.53,9.23-8.26,13.84l-11.61,6.7c-4.27-6.53-8.52-13.08-12.73-19.65l-16.52,26.35-16.52-25.9c-5.39,8.63-10.27,17.57-15.41,26.35-.03.04-.87.4-.89.45l-16.75-25.9-16.08,27.24-16.97-26.79-15.41,27.24h-.89l-16.3-25.9-16.08,25.45-15.85-24.78,15.85-28.36,15.85,26.12c.8.39,2.25-2.45,2.68-3.13,4.91-7.66,8.5-16.41,13.4-24.11l-15.63-26.79-16.3,27.02-16.75-26.35c0-.76.45-1.18.45-2.23l15.85-26.79,16.08,26.79,15.63-26.79,16.97,26.35,16.08-27.24,16.52,26.79,15.85-27.91-16.3-26.57-16.08,27.24-16.52-26.79-16.08,27.24-16.52-26.79-15.63,26.79-15.85-25.01c0-1.19,0-2.39,0-3.57l15.41-25.9,16.08,26.79,16.08-27.24,16.52,26.79,16.08-27.69,16.52,26.79c1.72-4.87,15.92-25.05,15.41-28.36l-16.3-26.12-15.63,27.24-16.52-26.79-16.08,27.24-16.08-26.79-16.08,27.24-15.41-24.56c0-1.78,0-3.58,0-5.36l14.51-25.01,16.52,26.79,16.08-27.24,16.52,26.79,15.63-27.24,16.52,26.79,16.08-27.24c5.58,9.03,12.15,18.15,16.3,27.91l-15.63,27.24,16.52,26.79-15.63,29.03c2.05,4.71,16.56,24.69,16.08,28.13l-15.85,26.57-16.52-26.79-16.08,27.69-16.97-26.79c-4.68,9.66-11.47,18.5-15.41,28.36l16.3,26.57,15.63-27.69,17.42,27.24,15.63-27.69,17.42,26.35,15.41-26.12-.89-3.57-15.18-24.11c-.49-2.98,13.73-23.84,15.63-28.13l-16.52-27.69,15.63-27.69-.45-2.23-15.63-25.45c.73-3.13,14.26-28.17,15.85-27.91l16.3,25.68v2.23l-15.63,27.69,16.97,27.24-16.08,28.13,17.19,26.57,15.85-27.46c-4.25-9.49-11.05-18.22-16.52-27.24l15.63-27.69-16.97-28.58,15.63-27.24c.12-1.12-9.25-17.13-10.72-19.43l20.54,3.13Z"/>
        <g>
          <polygon class="cls-2" points="430.7 468.31 447 493.54 431.15 522.34 413.96 496.22 430.7 468.31"/>
          <path class="cls-2" d="M463.3,466.97l16.3,26.12-15.85,28.36-16.3-26.57c-.42-1.84,13.84-24.54,15.85-27.91Z"/>
          <polygon class="cls-2" points="461.96 356.22 478.26 382.35 462.85 410.7 446.11 383.69 461.96 356.22"/>
          <path class="cls-2" d="M494.11,356.22l16.3,25.68c.61,3.09-13.41,24-15.41,28.36l-16.3-26.57,15.41-27.46Z"/>
          <path class="cls-2" d="M526.71,355.78l16.3,27.02-15.41,27.46-16.3-26.57c3.91-9.76,10.45-18.56,15.41-27.91Z"/>
        </g>
      </g>
      <path class="cls-2" d="M535.42,340.59c-2.65,4.82-5.98,9.48-8.71,14.29l-16.3-26.35,15.85-27.24,15.85,26.12c.11,1.16-5.65,11.26-6.7,13.17Z"/>
      <path class="cls-3" d="M455.49,536.19c-2.58,4.36-4.9,8.96-7.37,13.4-.91.22-3.67-5.82-4.24-6.7l11.61-6.7Z"/>
      <path class="cls-1" d="M392.08,306.21c-4.76,7.4-8.07,15.97-13.17,23.22-1.3,0-11.61-19.79-13.17-22.33l26.35-.89Z"/>
      <path class="cls-1" d="M423.78,308.44c-1.32,2.16-11.1,20.74-12.28,20.54-4.98-7.03-8.5-15.15-13.17-22.33l25.45,1.79Z"/>
      <path class="cls-1" d="M359.03,307.55c-4.28,7.13-7.64,14.94-12.28,21.88-1.49.32-10.03-16.52-11.39-18.76l23.67-3.13Z"/>
      <path class="cls-1" d="M323.75,312.46c-1.2,2.06-8.61,17.31-9.6,17.42-3.44-4.24-5.87-9.22-8.71-13.84l18.31-3.57Z"/>
      <path class="cls-1" d="M482.73,319.61c-.6,1-4.51,8.63-5.14,8.48l-6.48-11.61c2.71,1.34,8.69,1.14,11.61,3.13Z"/>
      <g>
        <path class="cls-3" d="M578.74,601.83c-.86.13-2.38.38-3.13.45l-14.07-24.56-14.51,24.56c-1.31.01-2.69-.01-4.02,0l-14.07-25.01-14.51,24.56c-1.22,0-2.5.44-3.57.45l-14.51-25.01-14.07,24.56c-1.39,0-2.64.44-3.57.45l-14.29-24.34,15.63-28.13c.21-1.68-5.08-9.37-6.25-11.39,8.42-3.69,14.78-11.23,21.88-16.08l-14.29,24.78-.45,3.13,15.85,26.57,15.41-26.57v-2.23l-15.63-26.12v-.89c.26-.06.71-.31.89-.45,1.67-1.27,7.57-3.06,10.05-4.47,4.35-2.48,8.28-5.71,12.73-8.04,2.75,4.45,5.87,8.71,8.26,13.4l15.41-26.35h.89l16.3,25.9,16.08-27.24,16.75,26.57-16.08,28.13,16.08,27.24-15.18,26.12Z"/>
        <polygon class="cls-2" points="561.1 521.9 577.4 548.47 561.54 576.82 545.24 550.25 545.24 548.47 561.1 521.9"/>
        <path class="cls-2" d="M528.5,522.34l15.85,26.12c.51,2.92-13.26,23.73-15.41,27.91l-15.85-26.57c4.15-9.42,10.03-18.53,15.41-27.46Z"/>
      </g>
      <path class="cls-1" d="M520.24,508.05c-4.44,2.33-8.37,5.56-12.73,8.04-2.48,1.41-8.37,3.2-10.05,4.47l14.51-26.35c.78-.19,7.4,12.46,8.26,13.84Z"/>
    </g>
  </g>
  <g>
    <g>
      <path class="cls-2" d="M99.22,140.55l15.63-27.69-16.97-28.58,15.63-27.24c.12-1.12-9.25-17.13-10.72-19.43-1.72-2.7-3.73-5.4-5.58-8.04-.4,0-3.7,5.81-4.24,6.7-1.32,2.16-11.1,20.74-12.28,20.54-4.98-7.03-8.5-15.15-13.17-22.33-.96-1.48-2.28-2.75-2.9-4.47-.73-.26-2.91,3.34-3.35,4.02-4.76,7.4-8.07,15.97-13.17,23.22-1.3,0-11.61-19.79-13.17-22.33-.92-1.49-2.56-3.13-3.35-4.91-.78,1.98-2.29,3.59-3.35,5.36-4.28,7.13-7.64,14.94-12.28,21.88-1.49.32-10.03-16.52-11.39-18.76-.45-.74-3.04-4.9-4.55-6.93v53.57l15.49-26.99,16.52,26.79,16.08-27.24c5.58,9.03,12.15,18.15,16.3,27.91l-15.63,27.24,16.52,26.79-15.63,29.03c2.05,4.71,16.56,24.69,16.08,28.13l-15.85,26.57-16.52-26.79-16.08,27.69L.3,197.49c-.1.2-.2.41-.3.61v52.36l1.2,1.95,15.63-27.69,17.42,27.24,15.63-27.69,17.42,26.35,15.41-26.12-.89-3.57-15.18-24.11c-.49-2.98,13.73-23.84,15.63-28.13l-16.52-27.69,15.63-27.69-.45-2.23-15.63-25.45c.73-3.13,14.26-28.17,15.85-27.91l16.3,25.68v2.23l-15.63,27.69,16.97,27.24-16.08,28.13,17.19,26.57,15.85-27.46c-4.25-9.49-11.05-18.22-16.52-27.24Z"/>
      <path class="cls-3" d="M264,22.89l-2.9,4.47c-1.27.4-12.05-20.22-14.07-22.33-2.37-.25-4.09.08-6.25,0l-12.73,22.33-14.07-22.33c-1.79-.02-3.6.01-5.36,0l-13.17,22.77-13.62-22.77c-1.92,0-3.89,0-5.81,0l-13.17,23.22-14.51-23.22c-1.62,0-3.29,0-4.91,0l-13.17,23.22-14.51-23.22c-1.23,0-3.23-.44-4.91-.45l-13.62,24.11-14.96-24.11c-1.48,0-2.98,0-4.47,0l-13.62,24.56-14.51-24.56c-1.34,0-2.68,0-4.02,0l-13.62,24.56L17.5,5.02c-.86,0-2.59-.45-4.02-.45L0,28.11v3.48c1.51,2.03,4.1,6.19,4.55,6.93l23.67-3.13c1.06-1.77,2.57-3.38,3.35-5.36.79,1.78,2.43,3.42,3.35,4.91l26.35-.89c.44-.68,2.62-4.27,3.35-4.02.62,1.72,1.94,2.99,2.9,4.47l25.45,1.79c.54-.88,3.84-6.7,4.24-6.7,1.85,2.63,3.86,5.34,5.58,8.04l20.54,3.13c2.27-3.73,4.13-7.76,6.92-11.16.89.08,7.5,13.48,10.05,14.74,2.71,1.34,8.69,1.14,11.61,3.13,3.64-6.1,6.99-12.39,10.94-18.31,4.88,9.23,11.86,17.92,15.85,27.24h.89l15.85-27.24,15.85,26.12c.11,1.16-5.65,11.26-6.7,13.17,8.52,6.04,13.96,15.11,17.86,24.56,1.85-3.39,3.95-6.65,5.81-10.05l-16.52-27.69c5.73-8.72,10.14-18.8,16.52-26.79l15.85,26.12c.52.14,1.26-.75,1.56-1.12,3.92-4.74,10.62-21.44,14.29-24.56,1.75-1.49,2.45,3.77,4.02,4.24-.08-3.35.25-6.99,0-10.27Z"/>
      <path class="cls-3" d="M84.93,278.98h-1.79l-15.41,26.57-15.85-27.69s-.87.4-.89.45c-.57.97-1.53,4.38-2.23,5.58-4.37,7.44-9.09,14.76-13.62,22.1l-16.52-25.9-16.08,26.79-2.54-4.06v8.75l2.09-3.8,13.62,22.33c1.93,0,3.87,0,5.81,0l13.62-23.22,14.07,23.22c1.63,0,3.28,0,4.91,0l13.62-23.67,14.07,23.67c1.64,0,3.3,0,4.91,0l13.84-24.78-15.63-26.35Z"/>
      <path class="cls-2" d="M142.98,266.26c1.17,2.02,6.46,9.7,6.25,11.39l-15.63,28.13,14.29,24.34c-9.66.02-19.4-.46-29.03-.45l14.29-25.23-16.3-26.12-15.85,27.46,13.84,24.34c-9.37.01-18.76.02-28.13,0l13.84-24.78-15.63-26.35h-1.79l-15.41,26.57-15.85-27.69c5.14-8.77,10.02-17.72,15.41-26.35l16.52,25.9,16.52-26.35c4.21,6.57,8.46,13.12,12.73,19.65.57.87,3.33,6.91,4.24,6.7,2.46-4.44,4.78-9.03,7.37-13.4,2.73-4.61,5.56-9.2,8.26-13.84,3.44,5.27,6.88,10.64,10.05,16.08Z"/>
      <polygon class="cls-2" points="32.9 141.67 16.83 168.91 .3 142.12 0 142.63 0 195.43 .75 196.6 16.83 169.36 33.35 196.15 49.2 168.24 32.9 141.67"/>
      <path class="cls-2" d="M48.31,111.97l-16.3-26.12-15.63,27.24L0,86.53v54.2l.3.49,16.08-27.69,16.52,26.79c1.72-4.87,15.92-25.05,15.41-28.36Z"/>
      <path class="cls-2" d="M264,33.16c.37,15.29-.07,30.69,0,46l-2.46,2.68-16.97-26.35c-1.99,3.96-16.27,25.38-15.85,27.91l16.3,26.12,15.85-26.57,3.13,3.35c.06,16.07-.03,32.16,0,48.23l-2.46,2.68-16.08-26.79c-1.06-.17-7.32,12.26-8.26,13.84-2.73,4.61-5.62,9.17-8.26,13.84l-16.3-26.57c-.28-1.97,8.26-15.66,9.82-18.53,1.85-3.39,3.95-6.65,5.81-10.05l-16.52-27.69c5.73-8.72,10.14-18.8,16.52-26.79l15.85,26.12c.52.14,1.26-.75,1.56-1.12,3.92-4.74,10.62-21.44,14.29-24.56,1.75-1.49,2.45,3.77,4.02,4.24Z"/>
      <path class="cls-2" d="M264,196.15c-.07,39.52.04,79.03,0,118.56-2.38,8.69-7.21,13.61-16.08,14.96l15.18-26.12-16.08-27.24,16.08-28.13-16.75-26.57-16.08,27.24-16.3-25.9c4.09-7.02,10.86-14.4,14.29-21.66,1.13-2.39,1-3.82,1.79-6.03,5.2,8.53,10.28,17.16,15.85,25.45l16.52-26.79,1.56,2.23Z"/>
      <path class="cls-3" d="M264,79.15c.01,2.38,0,4.77,0,7.14l-3.13-3.35-15.85,26.57-16.3-26.12c-.42-2.53,13.87-23.95,15.85-27.91l16.97,26.35,2.46-2.68Z"/>
      <path class="cls-3" d="M246.13,166.68c2.27,1.34,14.75,26.33,16.3,26.35l1.56-2.23c0,1.78,0,3.58,0,5.36l-1.56-2.23-16.52,26.79c-5.58-8.3-10.66-16.92-15.85-25.45-.69-1.13-.41-1.28-.45-1.34l15.63-27.24c.28.04.77-.07.89,0Z"/>
      <path class="cls-3" d="M118.86,329.67c-1.24,0-2.48.44-4.02.45l-13.84-24.34,15.85-27.46,16.3,26.12-14.29,25.23Z"/>
      <path class="cls-2" d="M264,141.22c.03,16.51.03,33.05,0,49.57l-1.56,2.23c-1.55-.01-14.03-25-16.3-26.35,1.61-3.9,3.41-7.88,5.36-11.61,3.03-5.78,6.42-11.64,10.05-16.97l2.46,3.13Z"/>
      <path class="cls-3" d="M264,134.52c0,2.23,0,4.47,0,6.7l-2.46-3.13c-3.63,5.33-7.02,11.19-10.05,16.97-1.74-11.83-7.78-21.17-14.29-30.81.94-1.58,7.2-14.01,8.26-13.84l16.08,26.79,2.46-2.68Z"/>
      <path class="cls-2" d="M0,4.77v23.34L13.48,4.58c-4.49.02-8.98.1-13.48.19Z"/>
      <path class="cls-2" d="M45.63,4.58l-13.62,24.56L17.5,5.02c9.34-.04,18.76-.42,28.13-.45Z"/>
      <path class="cls-2" d="M212.19,330.12c-9.52.08-19.11-.49-28.58-.45l14.51-24.56,14.07,25.01Z"/>
      <path class="cls-2" d="M180.04,330.12c-9.51.04-19.11-.47-28.58-.45l14.07-24.56,14.51,25.01Z"/>
      <path class="cls-2" d="M244.79,330.12c-8.88.74-19.46-.1-28.58,0l14.51-24.56,14.07,24.56Z"/>
      <path class="cls-2" d="M77.78,4.58l-13.62,24.56-14.51-24.56c9.37-.02,18.76.02,28.13,0Z"/>
      <path class="cls-2" d="M110.83,4.58l-13.62,24.11-14.96-24.11c9.52-.02,19.06-.01,28.58,0Z"/>
      <path class="cls-2" d="M143.43,5.02l-13.17,23.22-14.51-23.22c9.21.01,18.47-.02,27.69,0Z"/>
      <path class="cls-2" d="M81.8,330.12c-9.22-.02-18.46.02-27.69,0l13.62-23.67,14.07,23.67Z"/>
      <path class="cls-2" d="M176.02,5.02l-13.17,23.22-14.51-23.22c9.21.02,18.47-.03,27.69,0Z"/>
      <path class="cls-2" d="M49.2,330.12c-9.22-.02-18.47.04-27.69,0l13.62-23.22,14.07,23.22Z"/>
      <path class="cls-2" d="M208.62,5.02l-13.17,22.77-13.62-22.77c8.92.03,17.86-.06,26.79,0Z"/>
      <path class="cls-2" d="M240.77,5.02l-12.73,22.33-14.07-22.33c8.98.08,17.75-.35,26.79,0Z"/>
      <path class="cls-2" d="M2.09,307.79l-2.09,3.8v18.54c5.24-.01,10.48-.04,15.71-.02l-13.62-22.33Z"/>
      <path class="cls-2" d="M264,22.89l-2.9,4.47c-1.27.4-12.05-20.22-14.07-22.33,11.48,1.2,16.08,6.23,16.97,17.86Z"/>
      <path class="cls-2" d="M245.24,166.68l-15.63,27.24c-5.45-8.91-11.11-17.72-16.3-26.79l-16.52,26.35-16.08-26.79-15.63,26.79-16.52-26.79-16.08,27.24-16.3-27.46,15.85-27.02,16.52,26.35,15.63-26.35,16.52,26.79,16.08-26.79,16.08,26.79,16.52-27.24,16.3,26.57-.45,1.12Z"/>
      <path class="cls-2" d="M34.24,252.41l-16.08,27.24L1.2,252.86l-1.2,2.12v47.86l2.54,4.06,16.08-26.79,16.52,25.9c4.53-7.34,9.25-14.67,13.62-22.1.71-1.2,1.67-4.62,2.23-5.58l-16.75-25.9Z"/>
      <path class="cls-2" d="M178.7,56.38l-15.41,26.35-16.52-26.35-16.08,27.24-16.75-26.57c-.12-.93,8.17-14.31,9.38-16.3,2.27-3.73,4.13-7.76,6.92-11.16.89.08,7.5,13.48,10.05,14.74l6.48,11.61c.62.15,4.54-7.49,5.14-8.48,3.64-6.1,6.99-12.39,10.94-18.31,4.88,9.23,11.86,17.92,15.85,27.24Z"/>
      <path class="cls-2" d="M213.09,222.94l-15.41,26.35c-2.39-4.69-5.51-8.94-8.26-13.4-.86-1.39-7.48-14.03-8.26-13.84l-14.51,26.35c-.19.14-.64.38-.89.45-2.38-4.35-16.59-25.21-16.08-28.36l15.41-25.68,16.08,26.79,16.08-26.35,15.85,27.69Z"/>
      <path class="cls-2" d="M164.86,250.18c.24-.16.6-.37.89-.45l15.63,26.12v2.23l-15.41,26.57-15.85-26.57.45-3.13,14.29-24.78Z"/>
      <g>
        <path class="cls-1" d="M0,86.53l16.38,26.56,15.63-27.24,16.3,26.12c.51,3.3-13.69,23.49-15.41,28.36l-16.52-26.79L.3,141.22l-.3-.49v1.9l.3-.52,16.52,26.79,16.08-27.24,16.3,26.57-15.85,27.91-16.52-26.79L.75,196.6l-.75-1.17v2.67c.1-.2.21-.41.3-.61l16.97,26.79,16.08-27.69,16.52,26.79,15.85-26.57c.48-3.44-14.02-23.42-16.08-28.13l15.63-29.03-16.52-26.79,15.63-27.24c-4.15-9.76-10.72-18.88-16.3-27.91l-16.08,27.24-16.52-26.79L0,85.16v1.37Z"/>
        <path class="cls-1" d="M237.2,124.25c-2.73,4.61-5.62,9.17-8.26,13.84l-16.3-26.57c-.28-1.97,8.26-15.66,9.82-18.53-3.9-9.45-9.34-18.52-17.86-24.56-2.65,4.82-5.98,9.48-8.71,14.29l-16.3-26.35h-.89l-15.41,26.35-16.52-26.35-16.08,27.24-16.75-26.57c-.12-.93,8.17-14.31,9.38-16.3l-20.54-3.13c1.46,2.29,10.84,18.3,10.72,19.43l-15.63,27.24,16.97,28.58-15.63,27.69c5.47,9.02,12.27,17.75,16.52,27.24l-15.85,27.46-17.19-26.57,16.08-28.13-16.97-27.24,15.63-27.69v-2.23l-16.3-25.68c-1.59-.26-15.12,24.78-15.85,27.91l15.63,25.45.45,2.23-15.63,27.69,16.52,27.69c-1.9,4.29-16.12,25.15-15.63,28.13l15.18,24.11.89,3.57-15.41,26.12-17.42-26.35-15.63,27.69-17.42-27.24-15.63,27.69-1.2-1.95v4.52l1.2-2.12,16.97,26.79,16.08-27.24,16.75,25.9s.87-.4.89-.45c5.14-8.77,10.02-17.72,15.41-26.35l16.52,25.9,16.52-26.35c4.21,6.57,8.46,13.12,12.73,19.65l11.61-6.7c2.73-4.61,5.56-9.2,8.26-13.84,3.44,5.27,6.88,10.64,10.05,16.08,8.42-3.69,14.78-11.23,21.88-16.08.24-.16.6-.37.89-.45v-.89c-2.38-4.35-16.59-25.21-16.08-28.36l15.41-25.68,16.08,26.79,16.08-26.35,15.85,27.69h.89c4.09-7.02,10.86-14.4,14.29-21.66,1.13-2.39,1-3.82,1.79-6.03-.69-1.13-.41-1.28-.45-1.34-5.45-8.91-11.11-17.72-16.3-26.79l-16.52,26.35-16.08-26.79-15.63,26.79-16.52-26.79-16.08,27.24-16.3-27.46,15.85-27.02,16.52,26.35,15.63-26.35,16.52,26.79,16.08-26.79,16.08,26.79,16.52-27.24,16.3,26.57-.45,1.12c.28.04.77-.07.89,0,1.61-3.9,3.41-7.88,5.36-11.61-1.74-11.83-7.78-21.17-14.29-30.81Z"/>
        <g>
          <polygon class="cls-2" points="99.89 196.15 116.19 221.38 100.33 250.18 83.14 224.06 99.89 196.15"/>
          <path class="cls-2" d="M132.48,194.81l16.3,26.12-15.85,28.36-16.3-26.57c-.42-1.84,13.84-24.54,15.85-27.91Z"/>
          <polygon class="cls-2" points="131.15 84.06 147.44 110.19 132.04 138.54 115.29 111.53 131.15 84.06"/>
          <path class="cls-2" d="M163.3,84.06l16.3,25.68c.61,3.09-13.41,24-15.41,28.36l-16.3-26.57,15.41-27.46Z"/>
          <path class="cls-2" d="M195.9,83.62l16.3,27.02-15.41,27.46-16.3-26.57c3.91-9.76,10.45-18.56,15.41-27.91Z"/>
        </g>
      </g>
      <path class="cls-2" d="M204.6,68.43c-2.65,4.82-5.98,9.48-8.71,14.29l-16.3-26.35,15.85-27.24,15.85,26.12c.11,1.16-5.65,11.26-6.7,13.17Z"/>
      <path class="cls-3" d="M124.67,264.03c-2.58,4.36-4.9,8.96-7.37,13.4-.91.22-3.67-5.82-4.24-6.7l11.61-6.7Z"/>
      <path class="cls-1" d="M61.26,34.05c-4.76,7.4-8.07,15.97-13.17,23.22-1.3,0-11.61-19.79-13.17-22.33l26.35-.89Z"/>
      <path class="cls-1" d="M92.96,36.28c-1.32,2.16-11.1,20.74-12.28,20.54-4.98-7.03-8.5-15.15-13.17-22.33l25.45,1.79Z"/>
      <path class="cls-1" d="M28.21,35.39c-4.28,7.13-7.64,14.94-12.28,21.88-1.49.32-10.03-16.52-11.39-18.76l23.67-3.13Z"/>
      <path class="cls-1" d="M151.91,47.45c-.6,1-4.51,8.63-5.14,8.48l-6.48-11.61c2.71,1.34,8.69,1.14,11.61,3.13Z"/>
      <g>
        <path class="cls-3" d="M247.92,329.67c-.86.13-2.38.38-3.13.45l-14.07-24.56-14.51,24.56c-1.31.01-2.69-.01-4.02,0l-14.07-25.01-14.51,24.56c-1.22,0-2.5.44-3.57.45l-14.51-25.01-14.07,24.56c-1.39,0-2.64.44-3.57.45l-14.29-24.34,15.63-28.13c.21-1.68-5.08-9.37-6.25-11.39,8.42-3.69,14.78-11.23,21.88-16.08l-14.29,24.78-.45,3.13,15.85,26.57,15.41-26.57v-2.23l-15.63-26.12v-.89c.26-.06.71-.31.89-.45,1.67-1.27,7.57-3.06,10.05-4.47,4.35-2.48,8.28-5.71,12.73-8.04,2.75,4.45,5.87,8.71,8.26,13.4l15.41-26.35h.89l16.3,25.9,16.08-27.24,16.75,26.57-16.08,28.13,16.08,27.24-15.18,26.12Z"/>
        <polygon class="cls-2" points="230.28 249.74 246.58 276.31 230.73 304.66 214.43 278.09 214.43 276.31 230.28 249.74"/>
        <path class="cls-2" d="M197.68,250.18l15.85,26.12c.51,2.92-13.26,23.73-15.41,27.91l-15.85-26.57c4.15-9.42,10.03-18.53,15.41-27.46Z"/>
      </g>
      <path class="cls-1" d="M189.42,235.89c-4.44,2.33-8.37,5.56-12.73,8.04-2.48,1.41-8.37,3.2-10.05,4.47l14.51-26.35c.78-.19,7.4,12.46,8.26,13.84Z"/>
    </g>
    <g>
      <path class="cls-2" d="M103.16,417.08l15.63-27.69-16.97-28.58,15.63-27.24c.12-1.12-9.25-17.13-10.72-19.43-1.72-2.7-3.73-5.4-5.58-8.04-.4,0-3.7,5.81-4.24,6.7-1.32,2.16-11.1,20.74-12.28,20.54-4.98-7.03-8.5-15.15-13.17-22.33-.96-1.48-2.28-2.75-2.9-4.47-.73-.26-2.91,3.34-3.35,4.02-4.76,7.4-8.07,15.97-13.17,23.22-1.3,0-11.61-19.79-13.17-22.33-.92-1.49-2.56-3.13-3.35-4.91-.78,1.98-2.29,3.59-3.35,5.36-4.28,7.13-7.64,14.94-12.28,21.88-1.49.32-10.03-16.52-11.39-18.76-.6-.99-5.04-8.13-5.58-8.04-.87,1.67-1.88,3.28-2.91,4.88v43.88l3.8,6.17,15.63-27.24,16.52,26.79,16.08-27.24c5.58,9.03,12.15,18.15,16.3,27.91l-15.63,27.24,16.52,26.79-15.63,29.03c2.05,4.71,16.56,24.69,16.08,28.13l-15.85,26.57-16.52-26.79-16.08,27.69-16.97-26.79c-1.29,2.66-2.74,5.27-4.25,7.84v38.7l5.14,8.38,15.63-27.69,17.42,27.24,15.63-27.69,17.42,26.35,15.41-26.12-.89-3.57-15.18-24.11c-.49-2.98,13.73-23.84,15.63-28.13l-16.52-27.69,15.63-27.69-.45-2.23-15.63-25.45c.73-3.13,14.26-28.17,15.85-27.91l16.3,25.68v2.23l-15.63,27.69,16.97,27.24-16.08,28.13,17.19,26.57,15.85-27.46c-4.25-9.49-11.05-18.22-16.52-27.24Z"/>
      <path class="cls-3" d="M267.94,299.41l-2.9,4.47c-1.27.4-12.05-20.22-14.07-22.33-2.37-.25-4.09.08-6.25,0l-12.73,22.33-14.07-22.33c-1.79-.02-3.6.01-5.36,0l-13.17,22.77-13.62-22.77c-1.92,0-3.89,0-5.81,0l-13.17,23.22-14.51-23.22c-1.62,0-3.29,0-4.91,0l-13.17,23.22-14.51-23.22c-1.23,0-3.23-.44-4.91-.45l-13.62,24.11-14.96-24.11c-1.48,0-2.98,0-4.47,0l-13.62,24.56-14.51-24.56c-1.34,0-2.68,0-4.02,0l-13.62,24.56-14.51-24.11c-.86,0-2.59-.45-4.02-.45l-14.07,24.56-3.36-5.58v11.8c1.03-1.6,2.04-3.21,2.91-4.88.54-.09,4.98,7.04,5.58,8.04l23.67-3.13c1.06-1.77,2.57-3.38,3.35-5.36.79,1.78,2.43,3.42,3.35,4.91l26.35-.89c.44-.68,2.62-4.27,3.35-4.02.63,1.72,1.94,2.99,2.9,4.47l25.45,1.79c.54-.88,3.84-6.7,4.24-6.7,1.85,2.63,3.86,5.34,5.58,8.04l20.54,3.13c2.27-3.73,4.13-7.76,6.92-11.16.89.08,7.5,13.48,10.05,14.74,2.71,1.34,8.69,1.14,11.61,3.13,3.64-6.1,6.99-12.39,10.94-18.31,4.88,9.23,11.86,17.92,15.85,27.24h.89l15.85-27.24,15.85,26.12c.11,1.16-5.65,11.26-6.7,13.17,8.52,6.04,13.96,15.11,17.86,24.56,1.85-3.39,3.95-6.65,5.81-10.05l-16.52-27.69c5.73-8.72,10.14-18.8,16.52-26.79l15.85,26.12c.52.14,1.26-.75,1.56-1.12,3.92-4.74,10.62-21.44,14.29-24.56,1.75-1.49,2.45,3.77,4.02,4.24-.08-3.35.25-6.99,0-10.27Z"/>
      <path class="cls-3" d="M88.87,555.51h-1.79l-15.41,26.57-15.85-27.69s-.87.4-.89.45c-.57.97-1.53,4.38-2.23,5.58-4.37,7.44-9.09,14.76-13.62,22.1l-16.52-25.9-16.08,26.79-6.48-10.37v22.24l6.04-10.97,13.62,22.33c1.93,0,3.87,0,5.81,0l13.62-23.22,14.07,23.22c1.63,0,3.28,0,4.91,0l13.62-23.67,14.07,23.67c1.64,0,3.3,0,4.91,0l13.84-24.78-15.63-26.35Z"/>
      <path class="cls-2" d="M146.92,542.78c1.17,2.02,6.46,9.7,6.25,11.39l-15.63,28.13,14.29,24.34c-9.66.02-19.4-.46-29.03-.45l14.29-25.23-16.3-26.12-15.85,27.46,13.84,24.34c-9.37.01-18.76.02-28.13,0l13.84-24.78-15.63-26.35h-1.79l-15.41,26.57-15.85-27.69c5.14-8.77,10.02-17.72,15.41-26.35l16.52,25.9,16.52-26.35c4.21,6.57,8.46,13.12,12.73,19.65.57.87,3.33,6.91,4.24,6.7,2.46-4.44,4.78-9.03,7.37-13.4,2.73-4.61,5.56-9.2,8.26-13.84,3.44,5.27,6.88,10.64,10.05,16.08Z"/>
      <polygon class="cls-2" points="36.85 418.2 20.77 445.44 4.25 418.64 0 425.84 0 465.83 4.7 473.12 20.77 445.88 37.29 472.68 53.15 444.77 36.85 418.2"/>
      <path class="cls-2" d="M52.25,388.5l-16.3-26.12-15.63,27.24-16.52-26.79-3.8,6.44v41.59l4.25,6.89,16.08-27.69,16.52,26.79c1.72-4.87,15.92-25.05,15.41-28.36Z"/>
      <path class="cls-2" d="M267.94,309.68c.37,15.29-.07,30.69,0,46l-2.46,2.68-16.97-26.35c-1.99,3.96-16.27,25.38-15.85,27.91l16.3,26.12,15.85-26.57,3.13,3.35c.06,16.07-.03,32.16,0,48.23l-2.46,2.68-16.08-26.79c-1.06-.17-7.32,12.26-8.26,13.84-2.73,4.61-5.62,9.17-8.26,13.84l-16.3-26.57c-.28-1.97,8.26-15.66,9.82-18.53,1.85-3.39,3.95-6.65,5.81-10.05l-16.52-27.69c5.73-8.72,10.14-18.8,16.52-26.79l15.85,26.12c.52.14,1.26-.75,1.56-1.12,3.92-4.74,10.62-21.44,14.29-24.56,1.75-1.49,2.45,3.77,4.02,4.24Z"/>
      <path class="cls-2" d="M267.94,472.68c-.07,39.52.04,79.03,0,118.56-2.38,8.69-7.21,13.61-16.08,14.96l15.18-26.12-16.08-27.24,16.08-28.13-16.75-26.57-16.08,27.24-16.3-25.9c4.09-7.02,10.86-14.4,14.29-21.66,1.13-2.39,1-3.82,1.79-6.03,5.2,8.53,10.28,17.16,15.85,25.45l16.52-26.79,1.56,2.23Z"/>
      <path class="cls-3" d="M267.94,355.68c.01,2.38,0,4.77,0,7.14l-3.13-3.35-15.85,26.57-16.3-26.12c-.42-2.53,13.87-23.95,15.85-27.91l16.97,26.35,2.46-2.68Z"/>
      <path class="cls-3" d="M250.08,443.2c2.27,1.34,14.75,26.33,16.3,26.35l1.56-2.23c0,1.78,0,3.58,0,5.36l-1.56-2.23-16.52,26.79c-5.58-8.3-10.66-16.92-15.85-25.45-.69-1.13-.41-1.28-.45-1.34l15.63-27.24c.28.04.77-.07.89,0Z"/>
      <path class="cls-3" d="M122.81,606.2c-1.24,0-2.48.44-4.02.45l-13.84-24.34,15.85-27.46,16.3,26.12-14.29,25.23Z"/>
      <path class="cls-2" d="M267.94,417.75c.03,16.51.03,33.05,0,49.57l-1.56,2.23c-1.55-.01-14.03-25-16.3-26.35,1.61-3.9,3.41-7.88,5.36-11.61,3.03-5.78,6.42-11.64,10.05-16.97l2.46,3.13Z"/>
      <path class="cls-3" d="M267.94,411.05c0,2.23,0,4.47,0,6.7l-2.46-3.13c-3.63,5.33-7.02,11.19-10.05,16.97-1.74-11.83-7.78-21.17-14.29-30.81.94-1.58,7.2-14.01,8.26-13.84l16.08,26.79,2.46-2.68Z"/>
      <path class="cls-2" d="M0,281.37v18.72l3.36,5.58,14.07-24.56c-5.8.02-11.62.15-17.42.27Z"/>
      <path class="cls-2" d="M49.57,281.1l-13.62,24.56-14.51-24.11c9.34-.04,18.76-.42,28.13-.45Z"/>
      <path class="cls-2" d="M216.14,606.64c-9.52.08-19.11-.49-28.58-.45l14.51-24.56,14.07,25.01Z"/>
      <path class="cls-2" d="M183.99,606.64c-9.51.04-19.11-.47-28.58-.45l14.07-24.56,14.51,25.01Z"/>
      <path class="cls-2" d="M248.74,606.64c-8.88.74-19.46-.1-28.58,0l14.51-24.56,14.07,24.56Z"/>
      <path class="cls-2" d="M81.73,281.1l-13.62,24.56-14.51-24.56c9.37-.02,18.76.02,28.13,0Z"/>
      <path class="cls-2" d="M114.77,281.1l-13.62,24.11-14.96-24.11c9.52-.02,19.06-.01,28.58,0Z"/>
      <path class="cls-2" d="M147.37,281.55l-13.17,23.22-14.51-23.22c9.21.01,18.47-.02,27.69,0Z"/>
      <path class="cls-2" d="M85.75,606.64c-9.22-.02-18.46.02-27.69,0l13.62-23.67,14.07,23.67Z"/>
      <path class="cls-2" d="M179.97,281.55l-13.17,23.22-14.51-23.22c9.21.02,18.47-.03,27.69,0Z"/>
      <path class="cls-2" d="M53.15,606.64c-9.22-.02-18.47.04-27.69,0l13.62-23.22,14.07,23.22Z"/>
      <path class="cls-2" d="M212.57,281.55l-13.17,22.77-13.62-22.77c8.92.03,17.86-.06,26.79,0Z"/>
      <path class="cls-2" d="M244.72,281.55l-12.73,22.33-14.07-22.33c8.98.08,17.75-.35,26.79,0Z"/>
      <path class="cls-2" d="M6.04,584.31l-6.04,10.97v11.38c6.55,0,13.11-.05,19.66-.02l-13.62-22.33Z"/>
      <path class="cls-2" d="M267.94,299.41l-2.9,4.47c-1.27.4-12.05-20.22-14.07-22.33,11.48,1.2,16.08,6.23,16.97,17.86Z"/>
      <path class="cls-2" d="M249.19,443.2l-15.63,27.24c-5.45-8.91-11.11-17.72-16.3-26.79l-16.52,26.35-16.08-26.79-15.63,26.79-16.52-26.79-16.08,27.24-16.3-27.46,15.85-27.02,16.52,26.35,15.63-26.35,16.52,26.79,16.08-26.79,16.08,26.79,16.52-27.24,16.3,26.57-.45,1.12Z"/>
      <path class="cls-2" d="M38.19,528.94l-16.08,27.24-16.97-26.79-5.14,9.09v34.57l6.48,10.37,16.08-26.79,16.52,25.9c4.53-7.34,9.25-14.67,13.62-22.1.71-1.2,1.67-4.62,2.23-5.58l-16.75-25.9Z"/>
      <path class="cls-2" d="M182.65,332.9l-15.41,26.35-16.52-26.35-16.08,27.24-16.75-26.57c-.12-.93,8.17-14.31,9.38-16.3,2.27-3.73,4.13-7.76,6.92-11.16.89.08,7.5,13.48,10.05,14.74l6.48,11.61c.62.15,4.54-7.49,5.14-8.48,3.64-6.1,6.99-12.39,10.94-18.31,4.88,9.23,11.86,17.92,15.85,27.24Z"/>
      <path class="cls-2" d="M217.03,499.47l-15.41,26.35c-2.39-4.69-5.51-8.94-8.26-13.4-.86-1.39-7.48-14.03-8.26-13.84l-14.51,26.35c-.19.14-.64.38-.89.45-2.38-4.35-16.59-25.21-16.08-28.36l15.41-25.68,16.08,26.79,16.08-26.35,15.85,27.69Z"/>
      <path class="cls-2" d="M168.81,526.71c.24-.16.6-.37.89-.45l15.63,26.12v2.23l-15.41,26.57-15.85-26.57.45-3.13,14.29-24.78Z"/>
      <g>
        <path class="cls-1" d="M20.33,389.62l15.63-27.24,16.3,26.12c.51,3.3-13.69,23.49-15.41,28.36l-16.52-26.79-16.08,27.69-4.25-6.89v14.98l4.25-7.2,16.52,26.79,16.08-27.24,16.3,26.57-15.85,27.91-16.52-26.79-16.08,27.24-4.7-7.29v16.03c1.51-2.58,2.96-5.18,4.25-7.84l16.97,26.79,16.08-27.69,16.52,26.79,15.85-26.57c.48-3.44-14.02-23.42-16.08-28.13l15.63-29.03-16.52-26.79,15.63-27.24c-4.15-9.76-10.72-18.88-16.3-27.91l-16.08,27.24-16.52-26.79-15.63,27.24-3.8-6.17v13.5l3.8-6.44,16.52,26.79Z"/>
        <path class="cls-1" d="M241.15,400.78c-2.73,4.61-5.62,9.17-8.26,13.84l-16.3-26.57c-.28-1.97,8.26-15.66,9.82-18.53-3.9-9.45-9.34-18.52-17.86-24.56-2.65,4.82-5.98,9.48-8.71,14.29l-16.3-26.35h-.89l-15.41,26.35-16.52-26.35-16.08,27.24-16.75-26.57c-.12-.93,8.17-14.31,9.38-16.3l-20.54-3.13c1.46,2.29,10.84,18.3,10.72,19.43l-15.63,27.24,16.97,28.58-15.63,27.69c5.47,9.02,12.27,17.75,16.52,27.24l-15.85,27.46-17.19-26.57,16.08-28.13-16.97-27.24,15.63-27.69v-2.23l-16.3-25.68c-1.59-.26-15.12,24.78-15.85,27.91l15.63,25.45.45,2.23-15.63,27.69,16.52,27.69c-1.9,4.29-16.12,25.15-15.63,28.13l15.18,24.11.89,3.57-15.41,26.12-17.42-26.35-15.63,27.69-17.42-27.24-15.63,27.69-5.14-8.38v17.92l5.14-9.09,16.97,26.79,16.08-27.24,16.75,25.9s.87-.4.89-.45c5.14-8.77,10.02-17.72,15.41-26.35l16.52,25.9,16.52-26.35c4.21,6.57,8.46,13.12,12.73,19.65l11.61-6.7c2.73-4.61,5.56-9.2,8.26-13.84,3.44,5.27,6.88,10.64,10.05,16.08,8.42-3.69,14.78-11.23,21.88-16.08.24-.16.6-.37.89-.45v-.89c-2.38-4.35-16.59-25.21-16.08-28.36l15.41-25.68,16.08,26.79,16.08-26.35,15.85,27.69h.89c4.09-7.02,10.86-14.4,14.29-21.66,1.13-2.39,1-3.82,1.79-6.03-.69-1.13-.41-1.28-.45-1.34-5.45-8.91-11.11-17.72-16.3-26.79l-16.52,26.35-16.08-26.79-15.63,26.79-16.52-26.79-16.08,27.24-16.3-27.46,15.85-27.02,16.52,26.35,15.63-26.35,16.52,26.79,16.08-26.79,16.08,26.79,16.52-27.24,16.3,26.57-.45,1.12c.28.04.77-.07.89,0,1.61-3.9,3.41-7.88,5.36-11.61-1.74-11.83-7.78-21.17-14.29-30.81Z"/>
        <g>
          <polygon class="cls-2" points="103.83 472.68 120.13 497.91 104.28 526.71 87.09 500.59 103.83 472.68"/>
          <path class="cls-2" d="M136.43,471.34l16.3,26.12-15.85,28.36-16.3-26.57c-.42-1.84,13.84-24.54,15.85-27.91Z"/>
          <polygon class="cls-2" points="135.09 360.59 151.39 386.71 135.98 415.07 119.24 388.05 135.09 360.59"/>
          <path class="cls-2" d="M167.24,360.59l16.3,25.68c.61,3.09-13.41,24-15.41,28.36l-16.3-26.57,15.41-27.46Z"/>
          <path class="cls-2" d="M199.84,360.14l16.3,27.02-15.41,27.46-16.3-26.57c3.91-9.76,10.45-18.56,15.41-27.91Z"/>
        </g>
      </g>
      <path class="cls-2" d="M208.55,344.96c-2.65,4.82-5.98,9.48-8.71,14.29l-16.3-26.35,15.85-27.24,15.85,26.12c.11,1.16-5.65,11.26-6.7,13.17Z"/>
      <path class="cls-3" d="M128.62,540.55c-2.58,4.36-4.9,8.96-7.37,13.4-.91.22-3.67-5.82-4.24-6.7l11.61-6.7Z"/>
      <path class="cls-1" d="M65.2,310.58c-4.76,7.4-8.07,15.97-13.17,23.22-1.3,0-11.61-19.79-13.17-22.33l26.35-.89Z"/>
      <path class="cls-1" d="M96.91,312.81c-1.32,2.16-11.1,20.74-12.28,20.54-4.98-7.03-8.5-15.15-13.17-22.33l25.45,1.79Z"/>
      <path class="cls-1" d="M32.16,311.92c-4.28,7.13-7.64,14.94-12.28,21.88-1.49.32-10.03-16.52-11.39-18.76l23.67-3.13Z"/>
      <path class="cls-1" d="M155.85,323.97c-.6,1-4.51,8.63-5.14,8.48l-6.48-11.61c2.71,1.34,8.69,1.14,11.61,3.13Z"/>
      <g>
        <path class="cls-3" d="M251.86,606.2c-.86.13-2.38.38-3.13.45l-14.07-24.56-14.51,24.56c-1.31.01-2.69-.01-4.02,0l-14.07-25.01-14.51,24.56c-1.22,0-2.5.44-3.57.45l-14.51-25.01-14.07,24.56c-1.39,0-2.64.44-3.57.45l-14.29-24.34,15.63-28.13c.21-1.68-5.08-9.37-6.25-11.39,8.42-3.69,14.78-11.23,21.88-16.08l-14.29,24.78-.45,3.13,15.85,26.57,15.41-26.57v-2.23l-15.63-26.12v-.89c.26-.06.71-.31.89-.45,1.67-1.27,7.57-3.06,10.05-4.47,4.35-2.48,8.28-5.71,12.73-8.04,2.75,4.45,5.87,8.71,8.26,13.4l15.41-26.35h.89l16.3,25.9,16.08-27.24,16.75,26.57-16.08,28.13,16.08,27.24-15.18,26.12Z"/>
        <polygon class="cls-2" points="234.23 526.26 250.52 552.83 234.67 581.19 218.37 554.62 218.37 552.83 234.23 526.26"/>
        <path class="cls-2" d="M201.63,526.71l15.85,26.12c.51,2.92-13.26,23.73-15.41,27.91l-15.85-26.57c4.15-9.42,10.03-18.53,15.41-27.46Z"/>
      </g>
      <path class="cls-1" d="M193.37,512.42c-4.44,2.33-8.37,5.56-12.73,8.04-2.48,1.41-8.37,3.2-10.05,4.47l14.51-26.35c.78-.19,7.4,12.46,8.26,13.84Z"/>
    </g>
  </g>
</svg>