<?xml version="1.0" encoding="UTF-8"?>
<svg id="Ebene_1" data-name="Ebene 1" xmlns="http://www.w3.org/2000/svg" viewBox="0 0 328.41 326.06">
  <defs>
    <style>
      .cls-1 {
        fill: #6fafe0;
      }

      .cls-2 {
        fill: #fff;
      }

      .cls-3 {
        fill: #65a3d6;
      }
    </style>
  </defs>
  <path class="cls-2" d="M167.06,33.26c1.46,2.29,10.84,18.3,10.72,19.43l-15.63,27.24,16.97,28.58-15.63,27.69c5.47,9.02,12.27,17.75,16.52,27.24l-15.85,27.46-17.19-26.57,16.08-28.13-16.97-27.24,15.63-27.69v-2.23l-16.3-25.68c-1.59-.26-15.12,24.78-15.85,27.91l15.63,25.45.45,2.23-15.63,27.69,16.52,27.69c-1.9,4.29-16.12,25.15-15.63,28.13l15.18,24.11.89,3.57-15.41,26.12-17.42-26.35-15.63,27.69-17.42-27.24-15.63,27.69-16.3-26.57c3.94-9.85,10.73-18.7,15.41-28.36l16.97,26.79,16.08-27.69,16.52,26.79,15.85-26.57c.48-3.44-14.02-23.42-16.08-28.13l15.63-29.03-16.52-26.79,15.63-27.24c-4.15-9.76-10.72-18.88-16.3-27.91l-16.08,27.24-16.52-26.79-15.63,27.24-16.52-26.79-16.08,27.24-16.52-26.79L.49,79.7C.54,63.37-.19,46.85.05,30.58l14.96,23.22,16.08-27.24c2.51,4.37,5.18,8.66,7.81,12.95,2.84,4.63,5.26,9.6,8.71,13.84.99-.11,8.4-15.36,9.6-17.42,1.92-3.28,4.26-6.43,6.03-9.82.54-.09,4.98,7.04,5.58,8.04,1.36,2.23,9.9,19.08,11.39,18.76,4.64-6.94,8-14.75,12.28-21.88,1.06-1.77,2.57-3.38,3.35-5.36.79,1.78,2.43,3.42,3.35,4.91,1.57,2.53,11.88,22.33,13.17,22.33,5.1-7.25,8.41-15.82,13.17-23.22.44-.68,2.62-4.27,3.35-4.02.63,1.72,1.94,2.99,2.9,4.47,4.68,7.17,8.19,15.3,13.17,22.33,1.18.2,10.96-18.38,12.28-20.54.54-.88,3.84-6.7,4.24-6.7,1.85,2.63,3.86,5.34,5.58,8.04Z"/>
  <path class="cls-3" d="M49.17.66l14.51,24.11L77.75.21c1.42,0,3.15.45,4.02.45l14.51,24.11L109.9.21c1.34,0,2.68,0,4.02,0l14.51,24.56L142.05.21c1.48,0,2.98,0,4.47,0l14.96,24.11L175.1.21c1.68,0,3.68.44,4.91.45l14.51,23.22L207.69.66c1.62,0,3.29,0,4.91,0l14.51,23.22L240.29.66c1.91,0,3.88,0,5.81,0l13.62,22.77,13.17-22.77c1.76.01,3.57-.02,5.36,0l14.07,22.33,12.73-22.33c2.16.08,3.88-.25,6.25,0,2.01,2.11,12.8,22.73,14.07,22.33l2.9-4.47c.25,3.28-.08,6.93,0,10.27-1.57-.48-2.27-5.73-4.02-4.24-3.67,3.12-10.37,19.82-14.29,24.56-.3.37-1.04,1.25-1.56,1.12l-15.85-26.12c-6.39,8-10.79,18.08-16.52,26.79l16.52,27.69c-1.86,3.39-3.95,6.65-5.81,10.05-3.9-9.45-9.34-18.52-17.86-24.56,1.05-1.91,6.81-12.01,6.7-13.17l-15.85-26.12-15.85,27.24h-.89c-4-9.32-10.97-18.01-15.85-27.24-3.95,5.92-7.3,12.21-10.94,18.31-2.92-1.98-8.9-1.79-11.61-3.13-2.55-1.26-9.16-14.65-10.05-14.74-2.79,3.41-4.65,7.43-6.92,11.16l-20.54-3.13c-1.72-2.7-3.73-5.4-5.58-8.04-.4,0-3.7,5.81-4.24,6.7l-25.45-1.79c-.96-1.48-2.28-2.75-2.9-4.47-.73-.26-2.91,3.34-3.35,4.02l-26.35.89c-.92-1.49-2.56-3.13-3.35-4.91-.78,1.98-2.29,3.59-3.35,5.36l-23.67,3.13c-.6-.99-5.04-8.13-5.58-8.04-1.77,3.4-4.11,6.55-6.03,9.82l-18.31,3.57c-2.64-4.29-5.3-8.58-7.81-12.95l-16.08,27.24L.05,30.58c.04-2.62-.08-5.53,0-8.04L13.44.66c.73-.17,1.85.11,2.68,0l14.96,25.01L45.6.21c1.31-.01,2.89.45,3.57.45Z"/>
  <path class="cls-3" d="M150.98,325.75c-1.62,0-3.28,0-4.91,0l-14.07-23.67-13.62,23.67c-1.63,0-3.28,0-4.91,0l-14.07-23.22-13.62,23.22c-1.93,0-3.87,0-5.81,0l-13.62-22.33-12.28,22.33c-2.39-.02-4.76.02-7.14,0l-13.17-22.33-12.73,22.33c-1.21-.08-2.8-.28-4.02-.45-7.66-4.26-11.08-15.03-16.08-22.1l15.18-26.35,18.09,25.23,15.41-25.23-.45-1.12h.89l16.75,26.79,16.08-26.79,16.52,25.9c4.53-7.34,9.25-14.67,13.62-22.1.71-1.2,1.67-4.62,2.23-5.58.03-.04.87-.4.89-.45l15.85,27.69,15.41-26.57h1.79l15.63,26.35-13.84,24.78Z"/>
  <path class="cls-2" d="M207.25,261.89c1.17,2.02,6.46,9.7,6.25,11.39l-15.63,28.13,14.29,24.34c-9.66.02-19.4-.46-29.03-.45l14.29-25.23-16.3-26.12-15.85,27.46,13.84,24.34c-9.37.01-18.76.02-28.13,0l13.84-24.78-15.63-26.35h-1.79l-15.41,26.57-15.85-27.69c5.14-8.77,10.02-17.72,15.41-26.35l16.52,25.9,16.52-26.35c4.21,6.57,8.46,13.12,12.73,19.65.57.87,3.33,6.91,4.24,6.7,2.46-4.44,4.78-9.03,7.37-13.4,2.73-4.61,5.56-9.2,8.26-13.84,3.44,5.27,6.88,10.64,10.05,16.08Z"/>
  <path class="cls-2" d="M.49,192.68c-.02-17.56-.03-35.14,0-52.69l15.85,25.01,15.63-26.79,16.52,26.79,16.08-27.24,16.52,26.79,16.08-27.24,16.3,26.57-15.85,27.91-16.52-26.79-16.08,27.24-16.97-26.35-15.63,26.79-16.08-26.79L.49,192.68Z"/>
  <path class="cls-2" d="M.49,136.41c.03-17.11-.05-34.24,0-51.35l15.41,24.56,16.08-27.24,16.08,26.79,16.08-27.24,16.52,26.79,15.63-27.24,16.3,26.12c.51,3.3-13.69,23.49-15.41,28.36l-16.52-26.79-16.08,27.69-16.52-26.79-16.08,27.24-16.08-26.79L.49,136.41Z"/>
  <path class="cls-2" d="M328.26,28.79c.37,15.29-.07,30.69,0,46l-2.46,2.68-16.97-26.35c-1.99,3.96-16.27,25.38-15.85,27.91l16.3,26.12,15.85-26.57,3.13,3.35c.06,16.07-.03,32.16,0,48.23l-2.46,2.68-16.08-26.79c-1.06-.17-7.32,12.26-8.26,13.84-2.73,4.61-5.62,9.17-8.26,13.84l-16.3-26.57c-.28-1.97,8.26-15.66,9.82-18.53,1.85-3.39,3.95-6.65,5.81-10.05l-16.52-27.69c5.73-8.72,10.14-18.8,16.52-26.79l15.85,26.12c.52.14,1.26-.75,1.56-1.12,3.92-4.74,10.62-21.44,14.29-24.56,1.75-1.49,2.45,3.77,4.02,4.24Z"/>
  <path class="cls-2" d="M49.17,275.74l.45,1.12-15.41,25.23-18.09-25.23-15.18,26.35c4.99,7.07,8.41,17.84,16.08,22.1-9.29-1.23-13.52-5.18-16.52-14.07.29-38.78-.39-77.56-.45-116.33l16.75,26.35,16.3-27.02,15.63,26.79c-4.89,7.7-8.49,16.46-13.4,24.11-.43.68-1.88,3.52-2.68,3.13l-15.85-26.12L.94,250.5l15.85,24.78,16.08-25.45,16.3,25.9Z"/>
  <path class="cls-2" d="M328.26,191.78c-.07,39.52.04,79.03,0,118.56-2.38,8.69-7.21,13.61-16.08,14.96l15.18-26.12-16.08-27.24,16.08-28.13-16.75-26.57-16.08,27.24-16.3-25.9c4.09-7.02,10.86-14.4,14.29-21.66,1.13-2.39,1-3.82,1.79-6.03,5.2,8.53,10.28,17.16,15.85,25.45l16.52-26.79,1.56,2.23Z"/>
  <path class="cls-3" d="M328.26,74.79c.01,2.38,0,4.77,0,7.14l-3.13-3.35-15.85,26.57-16.3-26.12c-.42-2.53,13.87-23.95,15.85-27.91l16.97,26.35,2.46-2.68Z"/>
  <path class="cls-3" d="M310.4,162.31c2.27,1.34,14.75,26.33,16.3,26.35l1.56-2.23c0,1.78,0,3.58,0,5.36l-1.56-2.23-16.52,26.79c-5.58-8.3-10.66-16.92-15.85-25.45-.69-1.13-.41-1.28-.45-1.34l15.63-27.24c.28.04.77-.07.89,0Z"/>
  <path class="cls-3" d="M183.13,325.3c-1.24,0-2.48.44-4.02.45l-13.84-24.34,15.85-27.46,16.3,26.12-14.29,25.23Z"/>
  <path class="cls-2" d="M328.26,136.86c.03,16.51.03,33.05,0,49.57l-1.56,2.23c-1.55-.01-14.03-25-16.3-26.35,1.61-3.9,3.41-7.88,5.36-11.61,3.03-5.78,6.42-11.64,10.05-16.97l2.46,3.13Z"/>
  <path class="cls-3" d="M328.26,130.16c0,2.23,0,4.47,0,6.7l-2.46-3.13c-3.63,5.33-7.02,11.19-10.05,16.97-1.74-11.83-7.78-21.17-14.29-30.81.94-1.58,7.2-14.01,8.26-13.84l16.08,26.79,2.46-2.68Z"/>
  <path class="cls-2" d="M45.6.21l-14.51,25.45L16.12.66c9.51-1.23,19.85-.34,29.47-.45Z"/>
  <path class="cls-2" d="M77.75.21l-14.07,24.56L49.17.66c9.5-.09,19.05-.41,28.58-.45Z"/>
  <path class="cls-2" d="M109.9.21l-13.62,24.56L81.77.66c9.34-.04,18.76-.42,28.13-.45Z"/>
  <path class="cls-2" d="M276.46,325.75c-9.52.08-19.11-.49-28.58-.45l14.51-24.56,14.07,25.01Z"/>
  <path class="cls-2" d="M244.31,325.75c-9.51.04-19.11-.47-28.58-.45l14.07-24.56,14.51,25.01Z"/>
  <path class="cls-2" d="M309.06,325.75c-8.88.74-19.46-.1-28.58,0l14.51-24.56,14.07,24.56Z"/>
  <path class="cls-2" d="M142.05.21l-13.62,24.56L113.92.21c9.37-.02,18.76.02,28.13,0Z"/>
  <path class="cls-2" d="M175.1.21l-13.62,24.11L146.52.21c9.52-.02,19.06-.01,28.58,0Z"/>
  <path class="cls-2" d="M207.69.66l-13.17,23.22L180.01.66c9.21.01,18.47-.02,27.69,0Z"/>
  <path class="cls-2" d="M146.07,325.75c-9.22-.02-18.46.02-27.69,0l13.62-23.67,14.07,23.67Z"/>
  <path class="cls-2" d="M240.29.66l-13.17,23.22L212.61.66c9.21.02,18.47-.03,27.69,0Z"/>
  <path class="cls-2" d="M113.47,325.75c-9.22-.02-18.47.04-27.69,0l13.62-23.22,14.07,23.22Z"/>
  <path class="cls-2" d="M272.89.66l-13.17,22.77L246.1.66c8.92.03,17.86-.06,26.79,0Z"/>
  <path class="cls-2" d="M305.04.66l-12.73,22.33-14.07-22.33c8.98.08,17.75-.35,26.79,0Z"/>
  <path class="cls-2" d="M79.98,325.75c-8.63-.04-17.28.07-25.9,0l12.28-22.33,13.62,22.33Z"/>
  <path class="cls-2" d="M46.94,325.75c-8.39-.09-17.66.57-25.9,0l12.73-22.33,13.17,22.33Z"/>
  <path class="cls-2" d="M328.26,18.52l-2.9,4.47c-1.27.4-12.05-20.22-14.07-22.33,11.48,1.2,16.08,6.23,16.97,17.86Z"/>
  <path class="cls-2" d="M.05,22.54C.35,12.88,2.36,3.19,13.44.66L.05,22.54Z"/>
  <path class="cls-2" d="M309.51,162.31l-15.63,27.24c-5.45-8.91-11.11-17.72-16.3-26.79l-16.52,26.35-16.08-26.79-15.63,26.79-16.52-26.79-16.08,27.24-16.3-27.46,15.85-27.02,16.52,26.35,15.63-26.35,16.52,26.79,16.08-26.79,16.08,26.79,16.52-27.24,16.3,26.57-.45,1.12Z"/>
  <path class="cls-2" d="M115.26,273.95c-.57.97-1.53,4.38-2.23,5.58-4.37,7.44-9.09,14.76-13.62,22.1l-16.52-25.9-16.08,26.79-16.75-26.79,15.41-27.24,16.97,26.79,16.08-27.24,16.75,25.9Z"/>
  <path class="cls-2" d="M242.97,52.01l-15.41,26.35-16.52-26.35-16.08,27.24-16.75-26.57c-.12-.93,8.17-14.31,9.38-16.3,2.27-3.73,4.13-7.76,6.92-11.16.89.08,7.5,13.48,10.05,14.74l6.48,11.61c.62.15,4.54-7.49,5.14-8.48,3.64-6.1,6.99-12.39,10.94-18.31,4.88,9.23,11.86,17.92,15.85,27.24Z"/>
  <path class="cls-2" d="M277.36,218.58l-15.41,26.35c-2.39-4.69-5.51-8.94-8.26-13.4-.86-1.39-7.48-14.03-8.26-13.84l-14.51,26.35c-.19.14-.64.38-.89.45-2.38-4.35-16.59-25.21-16.08-28.36l15.41-25.68,16.08,26.79,16.08-26.35,15.85,27.69Z"/>
  <path class="cls-2" d="M229.13,245.82c.24-.16.6-.37.89-.45l15.63,26.12v2.23l-15.41,26.57-15.85-26.57.45-3.13,14.29-24.78Z"/>
  <g>
    <path class="cls-1" d="M187.6,36.38c-1.21,1.99-9.5,15.37-9.38,16.3l16.75,26.57,16.08-27.24,16.52,26.35,15.41-26.35h.89l16.3,26.35c2.73-4.8,6.06-9.47,8.71-14.29,8.52,6.04,13.96,15.11,17.86,24.56-1.57,2.87-10.11,16.57-9.82,18.53l16.3,26.57c2.65-4.67,5.53-9.23,8.26-13.84,6.51,9.64,12.55,18.99,14.29,30.81-1.95,3.73-3.75,7.71-5.36,11.61-.12-.07-.62.04-.89,0l.45-1.12-16.3-26.57-16.52,27.24-16.08-26.79-16.08,26.79-16.52-26.79-15.63,26.35-16.52-26.35-15.85,27.02,16.3,27.46,16.08-27.24,16.52,26.79,15.63-26.79,16.08,26.79,16.52-26.35c5.19,9.08,10.85,17.88,16.3,26.79.04.06-.24.21.45,1.34-.79,2.21-.66,3.64-1.79,6.03-3.43,7.26-10.2,14.63-14.29,21.66h-.89l-15.85-27.69-16.08,26.35-16.08-26.79-15.41,25.68c-.51,3.15,13.69,24.01,16.08,28.36v.89c-.29.07-.66.29-.89.45-7.1,4.84-13.46,12.39-21.88,16.08-3.16-5.44-6.6-10.8-10.05-16.08-2.7,4.64-5.53,9.23-8.26,13.84l-11.61,6.7c-4.27-6.53-8.52-13.08-12.73-19.65l-16.52,26.35-16.52-25.9c-5.39,8.63-10.27,17.57-15.41,26.35-.03.04-.87.4-.89.45l-16.75-25.9-16.08,27.24-16.97-26.79-15.41,27.24h-.89l-16.3-25.9-16.08,25.45L.94,250.5l15.85-28.36,15.85,26.12c.8.39,2.25-2.45,2.68-3.13,4.91-7.66,8.5-16.41,13.4-24.11l-15.63-26.79-16.3,27.02L.05,194.91c0-.76.45-1.18.45-2.23l15.85-26.79,16.08,26.79,15.63-26.79,16.97,26.35,16.08-27.24,16.52,26.79,15.85-27.91-16.3-26.57-16.08,27.24-16.52-26.79-16.08,27.24-16.52-26.79-15.63,26.79L.49,139.98c0-1.19,0-2.39,0-3.57l15.41-25.9,16.08,26.79,16.08-27.24,16.52,26.79,16.08-27.69,16.52,26.79c1.72-4.87,15.92-25.05,15.41-28.36l-16.3-26.12-15.63,27.24-16.52-26.79-16.08,27.24-16.08-26.79-16.08,27.24L.49,85.06c0-1.78,0-3.58,0-5.36l14.51-25.01,16.52,26.79,16.08-27.24,16.52,26.79,15.63-27.24,16.52,26.79,16.08-27.24c5.58,9.03,12.15,18.15,16.3,27.91l-15.63,27.24,16.52,26.79-15.63,29.03c2.05,4.71,16.56,24.69,16.08,28.13l-15.85,26.57-16.52-26.79-16.08,27.69-16.97-26.79c-4.68,9.66-11.47,18.5-15.41,28.36l16.3,26.57,15.63-27.69,17.42,27.24,15.63-27.69,17.42,26.35,15.41-26.12-.89-3.57-15.18-24.11c-.49-2.98,13.73-23.84,15.63-28.13l-16.52-27.69,15.63-27.69-.45-2.23-15.63-25.45c.73-3.13,14.26-28.17,15.85-27.91l16.3,25.68v2.23l-15.63,27.69,16.97,27.24-16.08,28.13,17.19,26.57,15.85-27.46c-4.25-9.49-11.05-18.22-16.52-27.24l15.63-27.69-16.97-28.58,15.63-27.24c.12-1.12-9.25-17.13-10.72-19.43l20.54,3.13Z"/>
    <g>
      <polygon class="cls-2" points="164.16 191.78 180.46 217.01 164.6 245.82 147.41 219.69 164.16 191.78"/>
      <path class="cls-2" d="M196.75,190.44l16.3,26.12-15.85,28.36-16.3-26.57c-.42-1.84,13.84-24.54,15.85-27.91Z"/>
      <polygon class="cls-2" points="195.41 79.7 211.71 105.82 196.31 134.18 179.56 107.16 195.41 79.7"/>
      <path class="cls-2" d="M227.57,79.7l16.3,25.68c.61,3.09-13.41,24-15.41,28.36l-16.3-26.57,15.41-27.46Z"/>
      <path class="cls-2" d="M260.17,79.25l16.3,27.02-15.41,27.46-16.3-26.57c3.91-9.76,10.45-18.56,15.41-27.91Z"/>
    </g>
  </g>
  <path class="cls-2" d="M268.87,64.07c-2.65,4.82-5.98,9.48-8.71,14.29l-16.3-26.35,15.85-27.24,15.85,26.12c.11,1.16-5.65,11.26-6.7,13.17Z"/>
  <path class="cls-3" d="M188.94,259.66c-2.58,4.36-4.9,8.96-7.37,13.4-.91.22-3.67-5.82-4.24-6.7l11.61-6.7Z"/>
  <path class="cls-1" d="M125.53,29.68c-4.76,7.4-8.07,15.97-13.17,23.22-1.3,0-11.61-19.79-13.17-22.33l26.35-.89Z"/>
  <path class="cls-1" d="M157.23,31.92c-1.32,2.16-11.1,20.74-12.28,20.54-4.98-7.03-8.5-15.15-13.17-22.33l25.45,1.79Z"/>
  <path class="cls-1" d="M92.48,31.02c-4.28,7.13-7.64,14.94-12.28,21.88-1.49.32-10.03-16.52-11.39-18.76l23.67-3.13Z"/>
  <path class="cls-1" d="M57.21,35.93c-1.2,2.06-8.61,17.31-9.6,17.42-3.44-4.24-5.87-9.22-8.71-13.84l18.31-3.57Z"/>
  <path class="cls-1" d="M216.18,43.08c-.6,1-4.51,8.63-5.14,8.48l-6.48-11.61c2.71,1.34,8.69,1.14,11.61,3.13Z"/>
  <g>
    <path class="cls-3" d="M312.19,325.3c-.86.13-2.38.38-3.13.45l-14.07-24.56-14.51,24.56c-1.31.01-2.69-.01-4.02,0l-14.07-25.01-14.51,24.56c-1.22,0-2.5.44-3.57.45l-14.51-25.01-14.07,24.56c-1.39,0-2.64.44-3.57.45l-14.29-24.34,15.63-28.13c.21-1.68-5.08-9.37-6.25-11.39,8.42-3.69,14.78-11.23,21.88-16.08l-14.29,24.78-.45,3.13,15.85,26.57,15.41-26.57v-2.23l-15.63-26.12v-.89c.26-.06.71-.31.89-.45,1.67-1.27,7.57-3.06,10.05-4.47,4.35-2.48,8.28-5.71,12.73-8.04,2.75,4.45,5.87,8.71,8.26,13.4l15.41-26.35h.89l16.3,25.9,16.08-27.24,16.75,26.57-16.08,28.13,16.08,27.24-15.18,26.12Z"/>
    <polygon class="cls-2" points="294.55 245.37 310.85 271.94 295 300.3 278.7 273.73 278.7 271.94 294.55 245.37"/>
    <path class="cls-2" d="M261.95,245.82l15.85,26.12c.51,2.92-13.26,23.73-15.41,27.91l-15.85-26.57c4.15-9.42,10.03-18.53,15.41-27.46Z"/>
  </g>
  <path class="cls-1" d="M253.69,231.53c-4.44,2.33-8.37,5.56-12.73,8.04-2.48,1.41-8.37,3.2-10.05,4.47l14.51-26.35c.78-.19,7.4,12.46,8.26,13.84Z"/>
</svg>