<?xml version="1.0" standalone="no"?>
<!DOCTYPE svg PUBLIC "-//W3C//DTD SVG 20010904//EN"
 "http://www.w3.org/TR/2001/REC-SVG-20010904/DTD/svg10.dtd">
<svg version="1.0" xmlns="http://www.w3.org/2000/svg"
 width="512.000000pt" height="436.000000pt" viewBox="0 0 512.000000 436.000000"
 preserveAspectRatio="xMidYMid meet">

<g transform="translate(0.000000,436.000000) scale(0.100000,-0.100000)"
fill="#000000" stroke="none">
<path d="M0 2180 l0 -2180 2560 0 2560 0 0 2180 0 2180 -2560 0 -2560 0 0
-2180z m2465 1908 c20 -23 22 -58 4 -58 -17 0 -9 -57 11 -79 22 -26 35 -98 25
-133 -14 -43 -69 -117 -96 -129 -15 -6 -30 -21 -33 -35 -4 -13 -13 -24 -22
-24 -10 0 -3 -12 20 -34 20 -18 36 -42 36 -52 0 -22 44 -90 82 -125 33 -31 35
-39 8 -39 -24 0 -25 -13 -5 -43 10 -17 13 -38 9 -73 -3 -27 -6 -68 -6 -91 0
-41 -10 -54 -23 -34 -9 15 -97 73 -102 67 -8 -8 50 -76 70 -82 10 -3 34 -3 52
0 31 6 34 11 44 57 13 61 42 124 73 162 12 16 23 36 23 45 0 9 15 24 32 32 40
18 43 47 9 87 -21 25 -56 85 -56 97 0 2 27 3 59 3 33 -1 63 2 68 7 4 4 8 38 8
74 1 80 6 91 43 86 15 -2 57 -4 95 -4 37 0 88 0 115 0 26 0 60 -3 76 -6 17 -4
27 -3 23 2 -3 6 20 7 60 3 37 -4 92 -3 122 1 34 5 61 4 68 -2 7 -5 17 -6 24
-2 17 10 300 14 293 3 -3 -5 2 -9 11 -9 9 0 14 4 11 8 -2 4 236 7 529 5 313
-1 537 2 540 7 3 5 15 6 27 1 21 -8 21 -10 24 -417 4 -484 4 -994 -1 -1045 -6
-78 -26 -168 -64 -295 -17 -58 -82 -184 -121 -233 -21 -27 -37 -51 -34 -54 3
-3 0 -8 -7 -13 -8 -5 -10 -3 -4 7 5 8 -12 -8 -36 -35 -76 -84 -206 -198 -258
-225 -12 -7 -20 -15 -17 -19 2 -4 120 -5 263 -2 142 3 263 1 268 -3 6 -5 11
-105 12 -255 2 -136 4 -397 6 -579 l4 -333 -61 0 c-34 -1 -405 -3 -826 -6
-421 -3 -1168 -6 -1660 -7 l-895 -2 3 115 c2 121 -4 174 -19 164 -5 -3 -21 3
-37 14 -21 15 -32 17 -49 9 -13 -5 -23 -16 -23 -24 0 -7 -4 -13 -9 -13 -5 0
-13 -10 -17 -22 -5 -18 -8 -19 -18 -7 -6 8 -22 16 -36 18 -41 5 -59 19 -81 64
-27 52 -31 55 -88 55 -50 0 -118 27 -134 53 -20 32 2 87 58 148 60 64 67 90
40 154 -8 19 -11 37 -8 41 4 3 0 6 -8 6 -11 1 -11 3 2 13 15 11 31 39 59 99 7
15 22 37 32 48 10 11 14 20 9 20 -5 0 -13 -5 -16 -10 -4 -6 -24 -19 -46 -30
-30 -16 -39 -27 -40 -48 l-2 -27 -4 28 c-4 25 -8 28 -36 25 -27 -3 -31 0 -29
17 2 11 6 37 9 59 4 28 12 42 32 54 15 8 34 27 43 42 13 23 13 29 1 47 -22 33
-9 55 52 92 64 39 86 61 61 61 -15 0 -15 3 -1 30 22 42 19 53 -10 34 -29 -19
-31 -11 -10 40 10 22 13 50 10 69 -5 24 -1 37 14 54 38 40 22 80 -25 63 -16
-6 -31 -15 -34 -19 -12 -19 -110 -80 -141 -89 -36 -10 -89 1 -141 29 -34 18
-108 87 -108 100 0 6 -8 23 -18 37 -12 17 -20 48 -21 84 -1 31 -13 96 -27 145
-13 48 -27 99 -30 112 -7 35 -33 81 -45 81 -6 0 -8 4 -5 8 3 5 -6 20 -20 35
-14 15 -23 27 -20 27 3 0 -2 17 -10 37 -9 20 -16 66 -17 102 -1 54 3 74 23
110 43 76 124 167 192 218 l49 36 -41 18 c-22 10 -43 25 -46 34 -3 8 -11 15
-18 15 -6 0 -46 34 -90 75 -43 41 -76 75 -72 75 3 0 -5 22 -19 50 -14 27 -25
62 -25 77 0 37 -21 66 -74 102 -47 33 -72 89 -60 138 10 43 13 45 40 18 14
-14 27 -25 30 -25 7 0 44 85 74 169 28 80 53 107 44 49 -8 -54 5 -61 61 -33
55 29 75 30 136 12 27 -8 64 -11 94 -8 67 9 179 -11 239 -42 40 -20 55 -23 81
-16 21 6 43 6 59 -1 64 -24 142 -66 155 -83 13 -18 14 -18 35 2 26 25 38 18
30 -16 -4 -13 1 -39 11 -60 12 -26 16 -50 12 -84 -5 -39 -3 -47 9 -42 7 3 14
11 14 19 0 7 11 25 24 41 l24 27 8 -44 c4 -25 8 -48 8 -52 1 -3 4 -10 9 -14
10 -10 9 -82 -1 -88 -5 -3 -7 -18 -6 -35 1 -17 -5 -36 -13 -42 -8 -7 -21 -26
-29 -41 -9 -18 -32 -36 -58 -48 -33 -14 -45 -25 -49 -47 -12 -55 -22 -61 -67
-36 -38 20 -40 20 -40 3 0 -24 -21 -70 -31 -70 -4 0 -10 4 -14 9 -3 6 -16 6
-33 1 -15 -5 -44 -11 -66 -15 -36 -6 -38 -8 -31 -33 4 -15 7 -44 7 -64 0 -21
4 -38 9 -38 5 0 9 -11 9 -25 0 -14 -4 -25 -10 -25 -5 0 -7 -7 -4 -15 4 -10 19
-14 45 -13 30 1 50 -6 81 -29 50 -36 97 -103 73 -103 -8 0 -15 5 -15 10 0 6
-17 10 -39 10 -44 0 -101 -18 -101 -32 0 -5 -18 -47 -40 -93 -31 -66 -53 -97
-105 -146 -36 -34 -65 -68 -65 -74 0 -7 -12 -20 -26 -30 -32 -21 -53 -70 -55
-128 -2 -37 3 -50 32 -82 53 -57 62 -60 125 -31 94 43 114 62 114 105 0 22 6
44 15 51 8 7 15 19 15 28 0 14 56 111 71 122 16 12 69 113 79 150 11 41 32 67
178 218 72 74 94 88 85 51 -5 -19 -3 -20 18 -14 40 12 72 29 76 41 5 15 -69
27 -78 13 -8 -14 -71 22 -75 43 -1 11 9 18 37 22 38 6 92 51 86 70 -6 17 -27
18 -27 2 0 -19 -40 -22 -40 -3 0 6 25 35 55 62 l56 50 -48 0 c-67 0 -71 25 -8
49 42 16 166 101 173 118 2 5 12 8 22 8 10 0 22 5 26 11 4 8 9 8 17 0 17 -17
27 -14 58 20 27 29 29 30 29 9 0 -12 10 -36 22 -53 12 -18 16 -27 9 -20 -10 8
-21 6 -47 -9 -19 -11 -34 -24 -34 -29 0 -18 44 -8 91 20 l47 30 -8 -30 c-7
-24 -6 -29 9 -29 10 0 30 11 45 25 35 32 64 47 76 40 6 -3 10 1 10 9 0 10 6
13 15 10 8 -4 13 -9 10 -13 -2 -4 9 -5 25 -3 17 2 28 8 25 12 -3 5 5 12 17 16
37 11 50 25 38 39 -8 10 -3 18 17 33 27 20 28 20 66 1 50 -26 63 -16 37 27
-27 47 -25 54 10 49 31 -4 42 11 15 21 -20 8 -19 20 5 44 12 12 18 25 15 29
-7 13 20 21 36 10 31 -20 39 -7 11 19 -16 15 -32 37 -36 50 -4 12 -11 22 -16
22 -12 0 -18 36 -8 53 6 12 2 20 -17 33 -30 19 -27 31 4 14 29 -15 27 3 -5 37
-14 15 -29 33 -32 39 -10 16 -207 121 -242 129 -33 7 -42 -9 -10 -18 11 -3 20
-10 20 -17 0 -6 -6 -8 -12 -4 -7 4 -10 4 -6 -1 4 -4 3 -14 -4 -22 -20 -25 1
-26 24 0 17 18 26 21 34 13 8 -8 7 -14 -5 -23 -13 -9 -14 -14 -3 -25 10 -10
17 -9 38 3 23 14 30 15 55 2 16 -8 27 -19 24 -24 -10 -15 -37 -10 -50 8 -11
15 -15 15 -30 3 -16 -13 -16 -15 1 -27 10 -7 15 -16 11 -19 -4 -4 -14 -1 -23
6 -12 11 -17 11 -23 2 -8 -13 -41 -6 -41 8 0 12 -31 21 -51 15 -11 -4 -19 -14
-19 -24 0 -10 -12 -30 -26 -45 -20 -20 -33 -24 -53 -19 -36 8 -37 11 -7 19 14
3 26 10 26 15 0 11 -30 -3 -72 -32 -33 -24 -39 -24 -32 -1 5 14 4 15 -5 2 -17
-24 -13 -33 13 -26 14 3 32 3 42 -1 16 -6 16 -7 0 -19 -16 -11 -16 -13 3 -19
12 -3 21 -11 21 -16 0 -9 -7 -11 -40 -13 -8 -1 -15 -6 -15 -13 0 -6 -4 -15 -9
-20 -5 -4 -5 6 -1 25 6 31 6 32 -18 23 -22 -9 -24 -8 -19 12 5 19 4 20 -11 8
-12 -10 -14 -18 -7 -32 9 -15 8 -17 -7 -12 -12 5 -15 2 -10 -9 3 -10 0 -19 -9
-22 -19 -7 -64 11 -64 26 0 8 -5 5 -11 -5 -11 -19 -31 -14 -24 6 2 7 6 31 9
54 5 44 -3 57 -39 65 -15 4 -9 10 28 26 27 12 59 22 71 22 12 0 33 8 46 17 14
10 26 17 28 15 10 -9 22 1 18 16 -4 13 6 27 36 50 23 18 48 32 56 32 8 0 38 7
67 15 46 14 53 20 57 44 2 16 -2 37 -9 47 -7 10 -13 27 -13 38 1 31 51 117 83
140 27 20 61 24 230 26 11 0 21 9 24 20 6 22 51 41 73 30 8 -5 24 -19 35 -32z
m-207 -447 c12 -7 12 -12 1 -30 -16 -25 -29 -27 -29 -6 0 8 -5 15 -11 15 -8 0
-8 5 1 15 14 17 20 18 38 6z m-64 -16 c-4 -8 -8 -15 -10 -15 -2 0 -4 7 -4 15
0 8 4 15 10 15 5 0 7 -7 4 -15z m-88 -26 c3 -6 15 -9 25 -6 11 3 19 0 19 -5 0
-6 6 -6 14 1 12 10 18 7 30 -17 8 -16 12 -33 8 -37 -4 -5 1 -5 11 -2 9 4 17 3
17 -2 0 -5 19 -11 42 -15 45 -7 71 -23 62 -37 -3 -5 -1 -9 4 -9 13 0 22 -49
10 -56 -4 -3 -6 -9 -3 -13 8 -13 -18 -38 -46 -45 -19 -4 -35 1 -54 16 l-28 22
23 8 c12 4 26 5 31 2 6 -3 7 5 3 20 -5 20 -2 26 10 26 27 0 18 18 -11 24 -45
9 -68 1 -69 -23 -2 -31 -14 -39 -21 -13 -3 12 -9 19 -14 17 -4 -3 -4 -18 2
-32 9 -24 6 -30 -22 -54 -23 -20 -41 -26 -65 -24 -19 1 -39 -4 -45 -11 -14
-17 -4 -48 13 -38 10 5 9 3 0 -7 -11 -12 -15 -11 -23 4 -14 24 -42 23 -34 -2
5 -17 -16 -50 -33 -52 -30 -3 -46 -10 -53 -21 -5 -7 -9 -8 -10 -3 -6 50 -19
85 -31 85 -5 0 -4 -8 2 -19 15 -29 12 -49 -10 -71 -17 -17 -26 -18 -64 -11
-25 5 -48 6 -50 3 -11 -10 6 -22 30 -22 31 0 31 -15 -2 -37 -25 -16 -28 -16
-56 0 -29 17 -30 17 -26 -1 5 -18 3 -18 -24 -5 -32 16 -33 36 -2 41 40 6 64
25 58 44 -10 32 4 68 26 68 11 0 20 5 20 11 0 5 4 8 9 4 6 -3 13 0 18 7 16 26
54 38 117 38 63 0 64 0 68 29 2 17 1 28 -4 25 -15 -9 -8 33 7 46 8 7 15 21 15
31 0 11 7 19 17 19 15 0 15 1 -1 18 -11 13 -14 28 -10 50 7 36 15 39 35 16 10
-13 10 -17 -1 -24 -11 -7 -8 -11 13 -19 36 -14 87 -14 87 -1 0 6 -6 13 -14 16
-18 7 -50 54 -37 54 5 0 13 -5 17 -11z m194 -45 c0 -3 -7 -1 -15 6 -8 7 -15
17 -15 22 0 5 7 3 15 -6 8 -8 15 -18 15 -22z m-206 11 c3 -8 1 -15 -4 -15 -6
0 -10 7 -10 15 0 8 2 15 4 15 2 0 6 -7 10 -15z m160 0 c3 -8 1 -15 -4 -15 -6
0 -10 7 -10 15 0 8 2 15 4 15 2 0 6 -7 10 -15z m-294 -25 c0 -5 -5 -10 -11
-10 -5 0 -7 5 -4 10 3 6 8 10 11 10 2 0 4 -4 4 -10z m-485 -68 c-3 -3 -11 0
-18 7 -9 10 -8 11 6 5 10 -3 15 -9 12 -12z m449 -18 c16 -6 23 -44 9 -44 -17
1 -45 29 -38 39 7 13 8 13 29 5z m-23 -47 c-13 -13 -51 1 -45 18 5 11 11 11
30 3 15 -7 21 -15 15 -21z m-284 -13 c-3 -3 -12 -4 -19 -1 -8 3 -5 6 6 6 11 1
17 -2 13 -5z m603 -104 c0 -5 -2 -10 -4 -10 -3 0 -8 5 -11 10 -3 6 -1 10 4 10
6 0 11 -4 11 -10z m70 0 c0 -5 -4 -10 -10 -10 -5 0 -10 5 -10 10 0 6 5 10 10
10 6 0 10 -4 10 -10z m-196 -31 c-3 -5 -11 -3 -18 4 -18 16 -8 31 10 16 7 -6
11 -15 8 -20z m146 -10 c0 -14 -17 -10 -23 5 -4 10 -1 13 9 9 7 -3 14 -9 14
-14z m-325 -68 c-3 -6 -14 -11 -23 -11 -13 0 -13 2 4 14 21 15 30 14 19 -3z"/>
<path d="M2227 3994 c-59 -31 -86 -81 -69 -128 12 -31 12 -31 -68 -10 -20 5
-23 4 -13 -6 7 -7 31 -15 54 -17 45 -5 59 5 59 45 0 13 4 20 10 17 5 -3 13 7
16 22 9 35 63 84 86 77 9 -2 19 0 23 5 3 7 0 8 -9 5 -9 -3 -16 -1 -16 5 0 17
-20 13 -73 -15z"/>
<path d="M2356 3948 c-8 -13 -17 -34 -21 -47 -4 -14 -22 -45 -40 -71 l-32 -46
40 -34 c52 -46 56 -47 51 -12 -3 19 2 36 16 52 11 12 27 40 37 61 9 22 20 39
23 39 10 0 8 34 -3 48 -6 8 -5 12 4 13 14 1 -27 16 -48 18 -7 1 -19 -9 -27
-21z"/>
<path d="M1968 3734 c11 -15 27 -23 42 -22 23 1 23 1 3 5 -13 3 -20 10 -17 17
3 8 -4 15 -20 18 -24 5 -24 4 -8 -18z"/>
<path d="M1868 3696 c-39 -33 -35 -37 12 -14 22 11 40 24 40 29 0 16 -25 9
-52 -15z"/>
<path d="M2090 3710 c-9 -6 -10 -10 -3 -10 6 0 15 5 18 10 8 12 4 12 -15 0z"/>
<path d="M4673 3703 c9 -2 23 -2 30 0 6 3 -1 5 -18 5 -16 0 -22 -2 -12 -5z"/>
<path d="M2970 3693 c-18 -8 -53 -46 -100 -110 -19 -26 -39 -51 -43 -54 -13
-10 -14 -639 -1 -639 18 0 37 28 28 41 -4 7 -3 9 3 6 10 -6 42 23 59 54 5 9
23 34 41 55 72 88 160 213 154 220 -3 4 -1 4 5 1 7 -4 15 9 22 36 5 23 20 83
32 132 32 129 50 217 50 242 0 23 -2 23 -117 22 -65 0 -125 -3 -133 -6z m200
-6 c0 -2 -10 -12 -22 -23 l-23 -19 19 23 c18 21 26 27 26 19z m-280 -551 c0
-2 -8 -10 -17 -17 -16 -13 -17 -12 -4 4 13 16 21 21 21 13z m-38 -178 c-8 -8
-9 -4 -5 13 4 13 8 18 11 10 2 -7 -1 -18 -6 -23z"/>
<path d="M3447 3647 c-21 -28 -52 -70 -70 -93 -17 -22 -52 -67 -76 -100 -24
-32 -71 -90 -104 -127 -55 -63 -62 -77 -88 -170 -16 -55 -30 -112 -33 -126 -2
-14 -13 -61 -25 -104 -11 -43 -25 -106 -31 -140 -7 -34 -20 -89 -31 -121 -10
-33 -19 -74 -19 -93 l0 -33 65 0 65 0 46 63 c66 89 178 226 186 226 4 1 8 -18
10 -41 2 -24 5 40 6 141 1 102 5 187 8 190 3 3 199 6 435 6 422 0 429 0 430
-20 1 -11 1 -28 0 -37 -2 -12 5 -18 18 -18 12 0 21 -4 21 -9 0 -21 43 -21 109
0 73 23 124 21 89 -5 -16 -12 -15 -26 3 -26 4 0 22 12 39 26 21 19 28 29 20
34 -14 9 32 25 98 35 40 6 56 25 32 40 -6 4 -3 17 10 35 34 47 19 142 -28 176
-11 8 -12 13 -4 18 27 16 1 106 -34 120 -21 8 -444 28 -513 24 -81 -5 -81 -28
0 -28 66 0 76 -7 19 -13 -19 -2 -37 -7 -40 -13 -8 -14 110 -17 155 -3 38 12
39 13 15 20 -24 7 -24 7 6 8 16 1 35 -4 42 -11 20 -20 14 -84 -10 -113 l-23
-26 -75 17 c-119 27 -140 28 -140 11 0 -8 13 -17 33 -20 17 -4 64 -14 102 -23
39 -9 84 -15 100 -15 17 1 68 1 115 1 47 1 114 5 149 11 58 9 65 8 83 -10 24
-26 32 -69 20 -101 -10 -26 -57 -45 -136 -55 -22 -2 -54 -9 -72 -15 -51 -17
-162 22 -267 94 -45 31 -43 30 -51 10 -4 -10 1 -22 11 -30 16 -12 15 -13 -11
-11 -24 2 -34 -5 -50 -31 l-21 -32 -100 2 c-55 0 -119 3 -142 6 l-43 4 0 91 0
91 -33 -34 c-18 -19 -55 -63 -81 -97 -47 -61 -51 -63 -94 -63 -35 0 -42 3 -34
13 13 16 44 150 40 174 -1 10 1 24 5 31 5 6 5 12 0 12 -4 0 -3 4 4 8 13 8 53
148 53 184 0 20 12 65 31 116 8 22 7 22 -74 22 l-82 0 -38 -53z m658 -497 c3
-5 -3 -10 -14 -10 -12 0 -21 5 -21 10 0 6 6 10 14 10 8 0 18 -4 21 -10z"/>
<path d="M4742 3600 c0 -14 2 -19 5 -12 2 6 2 18 0 25 -3 6 -5 1 -5 -13z"/>
<path d="M550 3590 c12 -8 11 -10 -7 -10 -12 0 -24 -4 -27 -9 -9 -14 -54 -19
-68 -7 -7 6 -4 0 7 -13 11 -14 14 -21 8 -17 -9 5 -13 -1 -12 -21 1 -19 3 -22
6 -9 4 14 7 16 13 6 6 -9 21 -1 59 31 47 40 52 59 16 59 -5 0 -3 -5 5 -10z"/>
<path d="M1795 3560 c-4 -6 -10 -8 -14 -6 -4 3 -13 1 -20 -3 -9 -6 -7 -10 8
-14 15 -3 25 1 31 14 11 19 6 27 -5 9z"/>
<path d="M654 3504 c-52 -19 -95 -60 -106 -99 -7 -27 12 -170 27 -210 14 -33
103 -115 148 -134 49 -22 97 -63 97 -86 0 -8 5 -15 10 -15 6 0 10 4 10 9 0 5
17 15 38 21 20 6 46 15 57 19 11 5 47 17 79 27 77 24 112 48 157 108 66 86 61
186 -12 258 -62 62 -118 73 -104 21 17 -70 -56 -174 -133 -188 -46 -8 -79 -29
-87 -55 -9 -28 -22 -25 -30 7 -3 15 -20 43 -36 64 -16 20 -29 49 -29 63 0 30
37 90 68 112 18 12 20 11 26 -9 4 -14 0 -26 -11 -34 -14 -11 -15 -16 -4 -37 8
-14 10 -33 6 -47 -7 -24 -7 -24 22 4 16 15 33 24 37 20 10 -10 45 37 46 60 0
9 -6 17 -13 17 -7 0 -23 11 -35 25 -12 14 -25 25 -30 25 -4 0 -8 10 -9 22 -2
27 -19 38 -59 38 -17 0 -44 2 -60 5 -16 2 -47 -3 -70 -11z"/>
<path d="M2710 3463 c0 -13 5 -23 10 -23 13 0 13 11 0 30 -8 12 -10 11 -10 -7z"/>
<path d="M420 3449 c0 -5 5 -7 12 -3 8 5 9 2 5 -9 -3 -10 -2 -17 3 -17 6 0 10
9 10 20 0 11 -7 20 -15 20 -8 0 -15 -5 -15 -11z"/>
<path d="M340 3440 c0 -20 23 -80 31 -80 3 0 4 12 1 28 -6 31 -32 75 -32 52z"/>
<path d="M4227 3444 c-9 -10 12 -34 30 -34 19 0 12 34 -8 38 -8 1 -18 0 -22
-4z"/>
<path d="M3822 3420 c0 -14 2 -19 5 -12 2 6 2 18 0 25 -3 6 -5 1 -5 -13z"/>
<path d="M4136 3424 c-4 -10 -13 -13 -24 -10 -13 4 -19 1 -19 -9 0 -12 9 -14
46 -9 53 7 73 20 51 34 -23 15 -47 12 -54 -6z"/>
<path d="M276 3401 c-11 -18 23 -70 50 -77 30 -8 43 2 25 19 -11 9 -14 9 -18
0 -6 -16 -33 8 -33 29 0 22 -17 42 -24 29z"/>
<path d="M1247 3393 c-11 -10 -8 -82 4 -104 14 -28 26 -16 21 23 -2 18 -4 45
-4 61 -1 26 -8 34 -21 20z"/>
<path d="M2700 3311 c0 -5 -9 -11 -20 -14 -11 -3 -20 -10 -20 -17 0 -6 5 -8
10 -5 6 3 10 0 11 -7 0 -7 5 -2 10 11 6 14 15 21 24 18 9 -4 12 -1 8 9 -6 15
-23 19 -23 5z"/>
<path d="M2375 3300 c3 -5 12 -10 18 -10 7 0 23 -9 37 -20 27 -21 40 -25 40
-11 0 13 -63 51 -84 51 -10 0 -14 -4 -11 -10z"/>
<path d="M4160 3296 c0 -9 4 -16 8 -16 4 0 8 -10 9 -22 3 -38 63 -56 63 -19 0
11 6 21 12 23 18 6 -12 34 -37 35 -11 0 -28 3 -37 8 -13 5 -18 3 -18 -9z"/>
<path d="M4500 3300 c-19 -12 -10 -20 36 -30 45 -10 49 -8 34 19 -11 22 -45
27 -70 11z"/>
<path d="M2741 3274 c0 -11 3 -14 6 -6 3 7 2 16 -1 19 -3 4 -6 -2 -5 -13z"/>
<path d="M4287 3271 c-2 -10 0 -26 5 -35 16 -28 0 -31 -21 -5 -11 13 -20 18
-21 12 0 -7 6 -13 13 -13 8 0 7 -3 -3 -10 -18 -11 -15 -13 32 -27 39 -11 61
-1 33 14 -14 8 -14 12 -1 38 8 15 21 32 28 36 8 6 0 9 -23 9 -27 0 -38 -5 -42
-19z"/>
<path d="M4753 3225 c0 -33 2 -45 4 -27 2 18 2 45 0 60 -2 15 -4 0 -4 -33z"/>
<path d="M2340 3248 c0 -9 5 -20 11 -23 17 -11 20 0 4 21 -13 17 -14 17 -15 2z"/>
<path d="M2710 3240 c6 -11 15 -20 21 -20 12 0 -28 -44 -42 -46 -30 -4 -31 -7
-3 -15 33 -9 47 -34 46 -77 -1 -12 3 -20 8 -17 13 8 13 65 0 65 -5 0 -10 5
-10 11 0 5 5 7 10 4 6 -4 10 15 10 50 0 32 -4 54 -9 50 -5 -3 -12 -1 -16 5
-12 20 -26 10 -15 -10z m27 -65 c0 -8 -4 -12 -9 -9 -5 3 -6 10 -3 15 9 13 12
11 12 -6z"/>
<path d="M1408 3228 c-9 -7 -22 -26 -28 -42 -6 -17 -15 -26 -24 -23 -7 3 -19
0 -25 -6 -9 -9 -14 -9 -19 0 -5 8 -13 9 -22 3 -11 -7 -12 -12 -3 -21 22 -22
94 7 121 48 26 40 26 60 0 41z"/>
<path d="M2648 3224 c-16 -8 -28 -17 -28 -19 0 -11 19 -4 41 15 29 23 24 25
-13 4z"/>
<path d="M2686 3214 c-17 -17 -21 -28 -7 -20 5 4 11 2 13 -4 2 -6 9 -1 15 9
16 25 0 36 -21 15z"/>
<path d="M1261 3184 c0 -11 3 -14 6 -6 3 7 2 16 -1 19 -3 4 -6 -2 -5 -13z"/>
<path d="M2273 3163 c2 -18 11 -41 20 -51 10 -10 17 -24 17 -30 0 -7 5 -12 11
-12 5 0 7 5 3 11 -4 8 0 7 15 -1 12 -6 30 -10 39 -7 12 2 5 9 -22 23 -22 10
-44 28 -50 39 -6 11 -17 29 -24 40 -11 18 -12 17 -9 -12z"/>
<path d="M2612 3137 c-24 -25 -28 -37 -12 -37 6 0 10 7 10 15 0 7 8 18 17 24
10 5 15 12 12 15 -3 3 -15 -4 -27 -17z"/>
<path d="M2230 3106 c0 -10 -4 -14 -10 -11 -18 11 -10 -39 10 -65 18 -23 20
-24 21 -5 1 11 1 23 1 26 -1 3 10 4 23 1 14 -2 25 -1 25 2 0 8 -26 35 -52 55
-16 12 -18 11 -18 -3z"/>
<path d="M2612 3100 c-8 -13 -8 -20 -2 -20 6 0 13 7 17 15 9 24 -1 27 -15 5z"/>
<path d="M2430 3105 c0 -10 43 -44 58 -45 20 0 14 -16 -12 -28 -28 -12 -63 -8
-118 13 -51 20 -42 -3 13 -34 22 -13 36 -27 33 -33 -5 -7 6 -9 32 -4 36 6 38
5 20 -9 -11 -8 -28 -15 -38 -15 -25 0 -23 -25 6 -63 27 -36 33 -67 22 -115 -6
-25 -4 -38 9 -52 11 -12 13 -20 6 -25 -21 -12 -11 -22 17 -17 15 3 21 7 15 9
-7 3 -13 8 -13 13 0 4 19 1 42 -7 22 -8 47 -12 55 -9 7 3 13 1 13 -5 0 -5 -7
-12 -16 -16 -15 -6 -15 -8 2 -20 10 -7 32 -13 50 -13 27 0 41 9 76 50 l43 50
0 90 c0 87 -7 112 -20 70 -3 -11 -11 -21 -16 -21 -28 -4 -79 -30 -79 -41 0
-15 19 -8 40 14 l20 22 0 -22 c0 -12 -16 -44 -35 -71 -19 -26 -35 -53 -35 -59
0 -6 -5 -14 -11 -18 -7 -4 -10 4 -7 22 2 20 -1 29 -12 29 -31 1 -80 17 -80 27
0 5 9 12 20 15 23 6 27 42 5 44 -33 3 -65 18 -65 31 0 6 7 5 16 -2 12 -11 18
-10 32 4 14 14 14 17 2 14 -10 -2 -15 6 -16 29 -2 25 2 32 22 36 13 2 25 -1
28 -7 2 -6 5 -3 5 7 1 9 -5 17 -13 17 -19 0 -27 25 -13 39 8 8 5 11 -10 11
-12 0 -25 6 -29 13 -4 6 -4 9 1 5 4 -4 15 -2 23 5 13 9 14 9 8 0 -4 -8 -2 -13
6 -13 23 0 35 14 42 50 5 26 4 31 -3 20 -7 -9 -14 -11 -18 -5 -10 12 -45 16
-37 4 9 -15 -35 -10 -61 7 -14 9 -25 13 -25 9z m20 -109 c0 -11 -19 -15 -25
-6 -3 5 1 10 9 10 9 0 16 -2 16 -4z"/>
<path d="M4753 3060 c0 -30 2 -43 4 -27 2 15 2 39 0 55 -2 15 -4 2 -4 -28z"/>
<path d="M2162 3085 c-8 -9 -10 -25 -5 -42 4 -16 6 -34 5 -40 -3 -15 7 -16 27
-4 7 5 11 14 7 19 -4 6 -7 27 -8 47 -1 38 -6 42 -26 20z"/>
<path d="M2690 3082 c0 -6 4 -12 9 -14 5 -1 11 -14 13 -28 2 -17 -3 -27 -20
-36 -14 -7 -19 -15 -13 -18 5 -4 18 3 29 14 14 16 18 29 13 52 -6 29 -31 53
-31 30z"/>
<path d="M4590 3080 c-12 -8 -11 -10 8 -10 12 0 22 5 22 10 0 13 -11 13 -30 0z"/>
<path d="M2610 3055 c0 -9 6 -12 15 -9 8 4 15 10 15 15 0 5 -7 9 -15 9 -8 0
-15 -7 -15 -15z"/>
<path d="M1300 3034 c-32 -12 -32 -13 -9 -13 14 -1 34 6 45 14 23 17 11 17
-36 -1z"/>
<path d="M2039 3033 c-7 -43 -7 -63 0 -59 8 5 13 66 5 66 -2 0 -5 -3 -5 -7z"/>
<path d="M4234 2760 c-1 -295 -6 -336 -48 -418 -26 -51 -115 -140 -177 -178
-69 -42 -72 -57 -5 -24 42 21 149 119 180 165 7 11 26 58 42 105 28 83 29 89
26 263 l-3 178 25 -16 c25 -17 28 -16 128 33 57 28 137 66 179 85 72 33 102
61 76 70 -7 2 -85 -34 -175 -80 -89 -45 -168 -83 -175 -83 -6 0 -24 11 -39 24
-24 21 -27 33 -30 93 -2 37 -4 -60 -4 -217z"/>
<path d="M1200 3026 c0 -2 14 -6 30 -8 17 -3 30 -1 30 4 0 4 -13 8 -30 8 -16
0 -30 -2 -30 -4z"/>
<path d="M2741 3004 c0 -11 3 -14 6 -6 3 7 2 16 -1 19 -3 4 -6 -2 -5 -13z"/>
<path d="M4483 3009 c-25 -9 -30 -19 -10 -19 15 0 43 17 37 23 -3 3 -15 1 -27
-4z"/>
<path d="M1996 2993 c-6 -14 -5 -15 5 -6 7 7 10 15 7 18 -3 3 -9 -2 -12 -12z"/>
<path d="M2091 2988 c-1 -16 4 -28 9 -28 12 0 12 8 0 35 -8 18 -9 17 -9 -7z"/>
<path d="M2625 2984 c9 -9 19 -13 23 -10 3 4 0 11 -8 16 -24 15 -33 11 -15 -6z"/>
<path d="M2218 2972 l-28 -18 26 -35 26 -34 -5 45 -6 45 19 -23 c14 -17 19
-36 17 -70 -3 -47 24 -122 44 -122 17 0 9 -27 -19 -66 -41 -57 -64 -122 -51
-145 6 -11 6 -19 0 -19 -11 0 -21 24 -21 51 0 10 -4 19 -10 19 -5 0 -10 -11
-10 -24 0 -27 35 -76 54 -76 7 0 21 -9 30 -19 10 -11 24 -17 31 -15 7 3 15 -2
18 -10 8 -19 8 -19 -34 -2 -42 17 -59 11 -59 -18 0 -27 -39 -84 -92 -135 -41
-39 -48 -67 -20 -74 9 -3 -10 -3 -43 0 -33 2 -69 4 -80 4 -54 -2 -69 0 -82 10
-10 9 -26 3 -71 -27 -86 -57 -140 -84 -180 -89 -21 -3 -42 -12 -48 -20 -21
-28 -30 -8 -11 23 15 22 -15 13 -39 -13 -22 -24 -23 -55 -2 -55 6 0 6 6 -1 14
-8 10 -9 16 -1 21 11 7 14 -10 10 -72 -3 -64 9 -123 26 -123 16 0 19 -17 3
-22 -7 -2 -7 -23 2 -68 19 -109 22 -201 7 -266 -24 -103 -24 -104 161 -105 86
-1 186 -2 222 -3 70 -2 82 10 33 32 -13 7 -24 16 -24 21 0 6 -17 15 -38 22
-34 10 -45 8 -87 -10 -26 -11 -52 -21 -57 -21 -9 0 -6 85 4 95 7 8 -2 54 -13
61 -20 12 -6 35 39 60 26 15 55 34 64 42 17 14 17 16 1 28 -10 7 -21 10 -25 8
-15 -9 -8 7 11 28 20 21 20 21 -10 50 -35 36 -36 45 -4 60 35 16 33 40 -3 37
-32 -4 -52 7 -52 27 0 10 7 13 24 8 14 -3 29 0 38 10 9 8 20 12 24 8 5 -4 5
-2 -1 5 -5 6 -19 13 -30 15 -18 3 -18 4 4 25 13 12 21 28 18 37 -5 12 -11 13
-37 3 -20 -8 -26 -13 -16 -15 12 -3 14 -8 6 -22 -9 -16 -30 -20 -68 -11 -2 1
7 11 20 24 28 27 91 52 96 37 5 -14 52 -13 52 1 0 6 9 9 20 6 23 -6 27 11 5
19 -8 4 -26 -1 -40 -10 -14 -9 -25 -12 -25 -6 0 6 10 15 23 20 12 5 16 9 9 9
-7 1 -10 6 -7 11 4 6 11 8 16 5 5 -4 9 0 9 8 0 18 27 30 35 17 4 -6 4 -14 0
-20 -3 -5 7 -5 25 2 26 9 33 8 45 -8 9 -13 10 -23 4 -31 -7 -8 -5 -10 10 -6
12 3 21 9 21 14 0 5 9 9 20 9 13 0 18 -5 14 -15 -4 -9 -1 -15 7 -15 22 0 42
17 35 28 -3 6 -2 13 4 17 15 9 12 23 -10 45 -19 19 -19 20 -2 20 25 0 42 19
35 39 -4 9 -3 13 2 9 4 -4 14 0 23 8 8 9 23 13 33 11 21 -6 35 8 19 18 -6 4
-4 15 7 31 11 18 19 22 26 15 13 -13 30 -15 23 -3 -3 5 3 18 12 28 25 26 24
37 -1 48 -17 7 -18 10 -6 13 8 2 27 -3 42 -10 37 -19 80 -11 72 14 -7 22 5 25
24 7 11 -11 13 -10 7 5 -3 10 -6 21 -6 23 0 3 -5 2 -11 -2 -6 -3 -25 7 -42 22
-18 16 -26 22 -19 14 14 -17 16 -34 2 -25 -5 3 -10 1 -10 -6 0 -8 -11 -9 -32
-5 -23 4 -28 3 -18 -3 8 -6 11 -13 7 -18 -4 -4 -16 -2 -25 5 -9 7 -25 15 -34
18 -10 4 -18 10 -18 14 0 5 -9 11 -19 15 -16 5 -19 14 -16 48 4 61 3 60 24 54
13 -3 21 1 24 14 4 14 10 17 24 12 16 -6 16 -5 4 10 -12 15 -11 17 3 17 9 0
16 -4 16 -10 0 -5 5 -10 10 -10 7 0 7 7 -1 21 -7 15 -8 24 0 32 7 7 13 2 21
-17 5 -15 14 -24 20 -21 5 3 10 -1 10 -9 0 -23 15 -19 17 4 1 11 -4 20 -13 20
-8 0 -14 6 -14 14 0 8 -9 18 -21 21 -29 10 -51 33 -76 85 -24 51 -40 160 -23
160 8 0 8 6 0 20 -13 25 -37 25 -72 2z m109 -588 c-3 -3 -12 -4 -19 -1 -8 3
-5 6 6 6 11 1 17 -2 13 -5z m-117 -114 c0 -10 -32 -30 -49 -30 -6 0 -11 5 -11
10 0 6 7 10 15 10 8 0 15 5 15 10 0 6 7 10 15 10 8 0 15 -4 15 -10z m-36 -96
c10 -25 -1 -29 -14 -5 -6 12 -7 21 -1 21 5 0 12 -7 15 -16z m-326 -224 c16
-16 27 -32 24 -35 -6 -6 -62 45 -62 57 0 13 7 9 38 -22z m-57 -63 c-15 -15
-126 -21 -147 -8 -15 10 -9 11 36 7 30 -2 64 -1 75 3 27 11 48 10 36 -2z"/>
<path d="M1010 2962 c-21 -17 -21 -19 -4 -19 10 0 30 8 43 19 22 17 22 18 3
18 -11 0 -30 -8 -42 -18z"/>
<path d="M2726 2965 c-3 -8 -1 -15 4 -15 6 0 10 7 10 15 0 8 -2 15 -4 15 -2 0
-6 -7 -10 -15z"/>
<path d="M3455 2971 c-3 -6 -2 -11 2 -11 5 0 13 -10 18 -22 10 -22 15 -23 116
-21 95 3 108 1 124 -17 10 -11 22 -20 27 -20 13 0 9 57 -6 69 -14 12 -149 9
-199 -4 -22 -6 -33 -3 -51 14 -15 15 -26 19 -31 12z"/>
<path d="M4253 2961 c0 -11 5 -18 9 -15 4 3 5 11 1 19 -7 21 -12 19 -10 -4z"/>
<path d="M1585 2960 c-19 -8 -19 -9 2 -9 12 -1 25 4 28 9 7 12 -2 12 -30 0z"/>
<path d="M2137 2963 c-4 -3 -7 -13 -6 -22 0 -12 2 -11 8 4 6 15 9 10 15 -25 6
-35 10 -41 15 -25 13 33 -13 87 -32 68z"/>
<path d="M2631 2941 c-6 -10 -7 -21 -4 -25 7 -7 43 23 43 36 0 16 -29 8 -39
-11z"/>
<path d="M1682 2905 c-23 -25 -51 -45 -62 -45 -24 0 -27 -15 -5 -24 16 -6 84
55 105 93 16 30 10 26 -38 -24z"/>
<path d="M1965 2933 c-26 -25 -36 -51 -24 -59 6 -3 15 0 20 7 8 12 10 12 18 0
7 -11 12 -9 22 10 7 13 14 29 15 36 3 18 -35 23 -51 6z m33 -18 c-3 -3 -9 2
-12 12 -6 14 -5 15 5 6 7 -7 10 -15 7 -18z"/>
<path d="M2667 2915 c-16 -14 -22 -25 -14 -25 7 0 24 11 37 25 30 32 14 32
-23 0z"/>
<path d="M4753 2890 c0 -25 2 -35 4 -22 2 12 2 32 0 45 -2 12 -4 2 -4 -23z"/>
<path d="M1854 2895 c-10 -8 -14 -15 -8 -15 5 0 19 7 30 15 10 8 14 15 8 15
-5 0 -19 -7 -30 -15z"/>
<path d="M3866 2895 c-28 -21 -11 -31 27 -17 51 18 75 15 129 -19 68 -41 73
-29 6 15 -41 28 -62 36 -98 36 -25 0 -54 -7 -64 -15z"/>
<path d="M2017 2860 c-19 -31 -15 -48 16 -71 5 -3 8 -10 8 -14 -2 -11 26 -15
45 -8 19 7 18 29 -1 37 -8 3 -15 12 -15 21 0 8 -5 15 -11 15 -5 0 -7 5 -4 10
3 6 2 10 -4 10 -5 0 -11 7 -13 16 -2 11 -9 6 -21 -16z"/>
<path d="M880 2836 c-23 -27 -64 -55 -123 -84 -98 -48 -124 -72 -158 -143 -21
-45 -22 -53 -10 -87 16 -43 47 -88 112 -160 l46 -51 19 22 c96 111 134 160
135 175 1 9 3 34 4 55 2 20 1 37 -3 37 -8 0 -12 19 -15 79 -1 22 -4 39 -7 38
-3 -1 -7 3 -8 8 -2 6 -9 16 -15 24 -10 12 -9 14 6 8 11 -4 25 1 37 13 17 17
24 18 41 9 25 -13 27 -11 39 30 8 29 6 33 -16 41 -14 6 -29 10 -34 10 -5 0
-10 4 -12 8 -1 5 -19 -10 -38 -32z"/>
<path d="M1770 2870 c0 -5 9 -10 21 -10 11 0 17 5 14 10 -3 6 -13 10 -21 10
-8 0 -14 -4 -14 -10z"/>
<path d="M2558 2840 c10 -28 13 -30 28 -16 21 22 17 36 -10 34 -17 -2 -22 -7
-18 -18z"/>
<path d="M2811 2844 c0 -11 3 -14 6 -6 3 7 2 16 -1 19 -3 4 -6 -2 -5 -13z"/>
<path d="M1870 2810 c-19 -17 -30 -30 -24 -30 6 0 23 14 39 30 36 38 30 38
-15 0z"/>
<path d="M3605 2824 c-39 -15 -60 -14 -100 1 -11 5 2 -14 30 -43 54 -56 64
-59 159 -46 43 6 46 9 46 36 0 21 -8 33 -32 48 -38 23 -49 24 -103 4z"/>
<path d="M1629 2794 c-23 -25 -23 -26 -2 -13 13 7 25 19 27 26 8 19 2 16 -25
-13z"/>
<path d="M3844 2796 c-3 -8 -3 -20 1 -27 13 -20 73 -39 125 -39 32 0 66 -8 91
-21 23 -11 43 -18 46 -15 3 3 -15 25 -41 50 -36 34 -57 45 -89 49 -23 3 -61 8
-84 12 -34 5 -44 4 -49 -9z"/>
<path d="M1793 2783 c-15 -5 -17 -23 -4 -23 5 0 11 7 15 15 3 8 4 15 3 14 -1
0 -8 -3 -14 -6z"/>
<path d="M1955 2782 c-28 -3 -67 -36 -105 -86 -25 -33 8 -8 48 36 33 37 37 38
49 22 11 -15 10 -21 -7 -39 -28 -30 -25 -40 4 -13 21 20 52 78 44 82 -2 1 -16
0 -33 -2z"/>
<path d="M2117 2753 c-13 -12 -7 -60 8 -73 21 -17 23 -13 17 38 -4 40 -11 50
-25 35z"/>
<path d="M2850 2715 c7 -9 15 -13 17 -11 7 7 -7 26 -19 26 -6 0 -6 -6 2 -15z"/>
<path d="M2170 2695 c-7 -14 -10 -28 -7 -31 4 -4 11 6 17 21 14 36 7 42 -10
10z"/>
<path d="M1590 2682 c0 -5 11 -14 25 -20 14 -6 25 -10 25 -8 0 2 -11 11 -25
20 -14 9 -25 13 -25 8z"/>
<path d="M2855 2650 c6 -27 4 -31 -12 -29 -10 1 -35 -5 -55 -15 -21 -9 -48
-16 -60 -16 -21 -1 -21 -2 -5 -11 10 -6 26 -8 35 -4 9 3 35 9 57 12 22 3 44 9
48 13 15 13 13 72 -2 78 -10 3 -11 -3 -6 -28z"/>
<path d="M3957 2666 c-6 -15 16 -62 39 -86 12 -12 14 -12 14 2 0 9 -7 18 -15
22 -9 3 -15 18 -15 35 0 32 -15 49 -23 27z"/>
<path d="M1965 2659 c-4 -6 -5 -12 -2 -15 2 -3 7 2 10 11 7 17 1 20 -8 4z"/>
<path d="M2235 2650 c-3 -5 -1 -10 4 -10 6 0 11 5 11 10 0 6 -2 10 -4 10 -3 0
-8 -4 -11 -10z"/>
<path d="M3333 2600 c0 -36 2 -50 4 -32 2 17 2 47 0 65 -2 17 -4 3 -4 -33z"/>
<path d="M1562 2630 c-26 -42 -9 -64 38 -49 14 5 39 10 55 13 17 2 32 5 35 5
3 1 -13 12 -35 26 -49 30 -76 31 -93 5z"/>
<path d="M1730 2640 c-13 -9 -13 -10 0 -9 8 1 26 5 40 9 l25 8 -25 1 c-14 0
-32 -4 -40 -9z"/>
<path d="M1908 2597 c-15 -12 -37 -30 -50 -39 l-23 -17 23 6 c12 3 22 9 22 13
0 4 9 10 19 13 10 2 24 14 30 26 14 26 13 26 -21 -2z"/>
<path d="M2146 2611 c-4 -5 -2 -20 3 -32 8 -22 8 -22 13 9 4 30 -4 43 -16 23z"/>
<path d="M1995 2554 c13 -95 12 -129 -4 -126 -7 2 -23 -6 -35 -16 -46 -40 -76
-21 -76 51 0 15 -5 27 -11 27 -6 0 -9 7 -5 15 9 23 -41 19 -54 -4 -14 -28 -12
-41 5 -35 10 4 15 0 15 -13 0 -11 11 -30 25 -43 21 -20 23 -25 10 -32 -8 -5
-19 -17 -25 -28 -9 -16 -6 -19 20 -18 18 1 30 6 30 14 0 7 6 11 14 8 7 -3 21
3 31 12 13 13 19 14 25 5 6 -11 9 -11 15 0 6 9 11 6 18 -12 6 -13 9 -27 9 -31
-1 -4 5 -5 14 -1 9 3 12 8 5 12 -5 4 -8 20 -6 36 12 104 4 218 -18 232 -7 4
-8 -13 -2 -53z"/>
<path d="M1778 2578 c-27 -11 -48 -24 -48 -29 0 -5 2 -9 5 -9 10 0 85 43 91
51 7 12 7 12 -48 -13z"/>
<path d="M2070 2585 c0 -31 21 -98 28 -90 11 11 1 79 -14 95 -12 12 -14 12
-14 -5z"/>
<path d="M1026 2549 c-35 -28 -26 -37 11 -12 15 11 35 23 43 26 10 4 9 6 -6 6
-12 1 -33 -9 -48 -20z"/>
<path d="M1575 2549 c-4 -5 1 -19 11 -30 17 -19 19 -19 31 -3 17 24 16 35 -2
28 -8 -4 -15 -1 -15 5 0 14 -17 14 -25 0z"/>
<path d="M4012 2538 c6 -16 36 -34 44 -25 9 9 -15 37 -33 37 -8 0 -13 -5 -11
-12z"/>
<path d="M4668 2543 c7 -3 16 -2 19 1 4 3 -2 6 -13 5 -11 0 -14 -3 -6 -6z"/>
<path d="M1687 2509 c4 -13 9 -17 15 -11 11 11 3 32 -12 32 -4 0 -6 -9 -3 -21z"/>
<path d="M1027 2513 c-4 -3 -7 -11 -7 -17 0 -6 5 -5 12 2 6 6 9 14 7 17 -3 3
-9 2 -12 -2z"/>
<path d="M3450 2486 c0 -22 96 -116 118 -116 11 0 37 -7 58 -16 25 -11 50 -14
74 -9 36 7 63 9 208 21 64 5 91 3 122 -10 86 -34 95 -12 13 30 -45 22 -75 29
-143 34 -53 3 -94 11 -104 19 -12 10 -52 15 -145 16 -114 2 -132 4 -159 23
-35 26 -42 27 -42 8z"/>
<path d="M2155 2458 c3 -16 1 -28 -4 -28 -13 0 -21 -38 -8 -43 6 -2 0 -13 -13
-25 -31 -28 -21 -37 21 -19 40 17 72 66 59 87 -8 12 -10 12 -10 1 0 -11 -3
-11 -16 0 -9 7 -20 22 -25 34 -8 16 -8 15 -4 -7z m27 -70 c-16 -16 -37 4 -28
28 6 16 8 16 23 1 13 -13 15 -19 5 -29z"/>
<path d="M2905 2460 c-3 -5 -3 -15 1 -21 5 -9 -14 -10 -72 -6 -43 3 -87 8 -96
12 -11 4 -18 3 -18 -4 0 -6 12 -14 27 -17 15 -4 36 -18 46 -31 10 -13 27 -23
37 -23 21 0 43 -23 32 -35 -4 -5 -1 -5 6 -1 6 4 12 18 12 32 0 13 5 24 10 24
10 0 30 38 36 68 3 14 -12 16 -21 2z"/>
<path d="M3345 2445 c23 -106 123 -212 265 -284 83 -42 143 -114 154 -185 8
-48 12 -54 20 -28 8 25 -34 120 -73 165 -17 19 -53 44 -80 56 -68 29 -163 93
-196 133 -15 18 -44 65 -63 103 -18 39 -31 57 -27 40z"/>
<path d="M4693 2463 c9 -2 25 -2 35 0 9 3 1 5 -18 5 -19 0 -27 -2 -17 -5z"/>
<path d="M960 2448 c0 -15 23 -20 36 -7 11 12 9 14 -11 14 -14 0 -25 -3 -25
-7z"/>
<path d="M2545 2410 c10 -11 13 -20 7 -20 -6 0 -14 5 -17 10 -10 17 -28 11
-21 -7 6 -15 5 -15 -11 -2 -10 8 -25 15 -33 14 -8 -1 -20 -3 -27 -3 -10 -2
-22 -24 -29 -54 -1 -5 -3 -10 -4 -13 -1 -3 -3 -8 -4 -12 -1 -5 -12 -27 -24
-51 l-23 -43 -29 18 c-28 16 -31 16 -65 -3 -50 -26 -59 -38 -46 -63 6 -10 8
-33 5 -50 -6 -28 -4 -30 32 -37 48 -8 64 -20 64 -48 0 -24 35 -60 69 -71 33
-10 20 -27 -32 -42 -25 -7 -49 -18 -52 -23 -10 -16 -28 -11 -21 5 5 13 2 14
-17 4 -29 -15 -37 -24 -14 -16 9 4 17 4 17 1 0 -17 -35 -65 -74 -104 -55 -53
-60 -88 -20 -125 23 -21 37 -25 93 -25 45 0 81 7 111 21 64 29 122 35 139 15
18 -21 30 -20 58 6 24 23 31 11 13 -23 -11 -19 -3 -31 55 -78 9 -7 14 -19 11
-27 -3 -8 -1 -14 4 -14 6 0 10 -7 10 -15 0 -8 -4 -15 -10 -15 -5 0 -10 -9 -10
-21 0 -11 -5 -29 -10 -39 -10 -19 -3 -20 317 -18 300 1 324 3 295 16 -18 9
-32 19 -32 23 0 5 -20 22 -44 39 -25 16 -65 51 -89 78 -24 26 -61 65 -81 87
-54 57 -99 115 -90 115 4 0 0 8 -8 18 -24 28 -78 121 -78 135 0 6 -6 24 -14
38 -7 15 -19 51 -26 80 -6 30 -18 78 -27 107 -8 30 -12 57 -8 60 3 4 22 5 41
3 26 -2 34 1 34 13 0 10 -9 16 -25 16 -14 0 -25 4 -25 9 0 8 -36 24 -51 23 -3
-1 -5 9 -5 21 1 15 -4 22 -17 21 -10 -1 -16 1 -13 4 3 3 1 11 -5 18 -9 11 -16
11 -38 0 -23 -12 -62 -20 -84 -17 -4 1 7 14 25 31 28 24 29 28 11 23 -12 -3
-24 -12 -26 -22 -4 -13 -5 -13 -6 2 0 10 -7 25 -15 33 -22 22 -32 17 -11 -6z
m205 -152 c0 -6 -7 -5 -15 2 -8 7 -15 17 -15 22 0 6 7 5 15 -2 8 -7 15 -17 15
-22z"/>
<path d="M2645 2410 c-3 -5 1 -10 9 -10 8 0 18 5 21 10 3 6 -1 10 -9 10 -8 0
-18 -4 -21 -10z"/>
<path d="M2056 2362 c-3 -6 -1 -14 5 -17 15 -10 25 3 12 16 -7 7 -13 7 -17 1z"/>
<path d="M3125 2347 c-17 -66 17 -189 67 -244 18 -19 19 -27 9 -73 -19 -88
-14 -158 14 -206 38 -65 110 -102 187 -95 9 0 30 12 46 26 l30 25 41 -46 c43
-49 49 -71 30 -107 -14 -26 -28 -37 -49 -37 -11 0 -11 3 -2 12 33 33 -6 96
-52 84 -28 -7 -42 -41 -31 -75 6 -21 71 -61 99 -61 7 0 28 13 45 29 26 24 31
37 31 73 0 36 -7 52 -40 92 -40 49 -48 70 -30 81 14 9 12 70 -4 109 -26 63
-100 99 -157 76 -27 -11 -32 -10 -56 14 -24 24 -26 32 -24 105 2 63 -2 88 -18
119 -29 57 -67 99 -101 111 -27 9 -30 8 -35 -12z m89 -100 c22 -37 24 -50 18
-87 l-7 -44 -22 29 c-23 34 -43 145 -25 145 6 0 23 -19 36 -43z m84 -250 c15
-16 18 -27 12 -37 -17 -27 -11 -96 11 -124 17 -21 28 -26 62 -25 l42 1 -34 8
c-46 11 -62 40 -45 84 10 25 18 20 68 -40 52 -63 50 -73 -13 -94 -36 -11 -42
-10 -81 11 -42 24 -80 79 -80 118 0 30 23 121 30 121 4 0 16 -10 28 -23z m177
-79 c27 -32 31 -54 15 -78 -9 -13 -12 -13 -25 4 -7 10 -28 34 -45 53 -18 19
-29 40 -27 47 9 22 55 7 82 -26z"/>
<path d="M1662 2348 c5 -14 48 -20 48 -8 0 8 -25 20 -42 20 -5 0 -8 -6 -6 -12z"/>
<path d="M2310 2325 c-11 -13 -8 -15 15 -15 23 0 26 2 15 15 -7 8 -14 15 -15
15 -1 0 -8 -7 -15 -15z"/>
<path d="M2041 2293 c-1 -16 5 -23 17 -23 10 0 13 3 6 8 -6 4 -14 14 -17 22
-4 10 -6 8 -6 -7z"/>
<path d="M2830 2295 c-9 -10 -9 -15 -1 -15 6 0 11 5 11 11 0 7 10 9 26 5 17
-5 23 -3 19 4 -9 15 -41 12 -55 -5z"/>
<path d="M1702 2278 c3 -7 14 -14 26 -14 12 -1 19 3 16 8 -3 4 -10 6 -15 3 -5
-4 -9 -1 -9 4 0 6 -5 11 -11 11 -6 0 -9 -6 -7 -12z"/>
<path d="M2080 2280 c0 -5 5 -10 10 -10 6 0 10 5 10 10 0 6 -4 10 -10 10 -5 0
-10 -4 -10 -10z"/>
<path d="M4244 2275 c-4 -8 -3 -26 0 -39 3 -14 2 -28 -4 -31 -5 -3 -10 -19
-10 -36 0 -16 -5 -29 -10 -29 -11 0 -14 6 -25 55 -4 17 -10 24 -12 18 -3 -9
-10 -10 -23 -3 -17 9 -18 6 -17 -35 1 -25 5 -45 9 -45 16 0 59 -53 54 -66 -6
-17 -28 -18 -43 -3 -9 9 -16 8 -27 -4 -36 -35 20 -57 72 -28 20 11 26 10 38
-6 18 -24 18 -43 -1 -43 -8 0 -19 -9 -25 -21 -9 -16 -8 -24 4 -38 25 -27 19
-37 -19 -33 -30 4 -35 1 -35 -16 0 -21 18 -32 55 -32 13 0 25 -4 27 -10 6 -17
29 6 32 31 6 57 46 70 46 17 1 -26 8 -37 33 -53 36 -23 48 -63 23 -77 -26 -14
-20 -47 10 -54 27 -7 47 12 50 46 1 8 4 25 8 38 6 16 1 30 -18 53 -14 17 -26
34 -26 39 0 13 29 32 40 25 5 -3 19 -3 30 0 16 5 20 15 20 47 0 23 6 57 13 76
10 28 10 36 0 39 -21 7 -15 27 17 53 20 17 30 34 30 52 0 16 -3 27 -7 27 -5
-1 -10 0 -13 1 -3 1 -35 3 -72 6 -60 4 -68 2 -82 -18 -23 -33 -20 -53 15 -82
26 -22 29 -29 19 -41 -9 -11 -9 -15 -1 -15 6 0 11 -6 11 -14 0 -7 9 -25 21
-40 23 -29 19 -59 -6 -50 -8 3 -15 12 -15 19 0 7 -6 18 -14 24 -8 6 -19 31
-25 54 -13 51 -27 68 -65 85 l-29 13 21 19 c12 11 26 20 31 20 6 0 -1 11 -14
25 -14 13 -25 33 -25 44 0 11 -10 27 -22 35 -28 20 -37 20 -44 1z m251 -155
c-16 -16 -32 -30 -36 -30 -5 0 -20 11 -35 25 -21 20 -25 28 -15 38 8 8 16 9
29 0 14 -8 24 -7 43 2 38 21 47 0 14 -35z m-25 -108 c0 -13 -4 -20 -10 -17 -5
3 -10 21 -10 38 0 24 3 28 10 17 5 -8 10 -25 10 -38z"/>
<path d="M2325 2270 c27 -12 43 -12 25 0 -8 5 -22 9 -30 9 -10 0 -8 -3 5 -9z"/>
<path d="M1717 2190 c-12 -9 -28 -16 -35 -14 -8 1 -8 0 -1 -3 8 -4 7 -8 -2
-14 -11 -7 -11 -9 2 -9 9 0 19 7 23 15 3 8 14 15 24 15 11 0 25 6 31 13 16 20
-15 18 -42 -3z"/>
<path d="M3912 2104 c-40 -28 -122 -107 -122 -117 0 -6 8 -3 18 6 10 10 22 14
27 10 4 -5 5 -3 2 4 -4 6 17 32 50 62 58 51 68 65 25 35z"/>
<path d="M4707 2101 c-4 -17 -3 -21 5 -13 5 5 8 16 6 23 -3 8 -7 3 -11 -10z"/>
<path d="M2012 2090 c-12 -11 -22 -28 -22 -37 0 -12 -3 -13 -13 -4 -8 6 -17 8
-20 4 -9 -9 -9 -23 1 -22 18 3 32 -2 32 -12 0 -6 -7 -9 -15 -5 -8 3 -15 1 -15
-4 0 -5 -11 -12 -25 -16 -28 -7 -32 -25 -11 -44 11 -9 19 -9 33 0 15 10 15 11
1 6 -9 -2 -21 1 -27 8 -14 17 21 15 41 -2 12 -9 20 -6 43 18 16 17 34 30 41
30 7 0 18 8 23 18 6 9 11 13 11 7 0 -5 4 -4 9 3 13 22 1 62 -19 62 -10 0 -25
2 -32 5 -8 3 -24 -4 -36 -15z"/>
<path d="M1202 2056 c-15 -18 -18 -26 -8 -26 17 0 39 26 34 40 -2 6 -13 0 -26
-14z"/>
<path d="M1500 2040 c-9 -6 -10 -10 -3 -10 6 0 15 5 18 10 8 12 4 12 -15 0z"/>
<path d="M1197 2012 c-10 -10 -17 -25 -17 -33 1 -11 4 -10 14 4 16 20 28 23
20 3 -3 -7 -23 -22 -45 -31 -26 -12 -38 -23 -35 -32 4 -8 1 -11 -5 -7 -6 3
-19 -3 -30 -15 -11 -12 -26 -21 -33 -21 -14 0 -30 -29 -22 -38 3 -2 17 3 31
12 29 19 45 14 45 -15 0 -10 5 -19 10 -19 14 0 69 62 70 79 0 7 6 11 15 7 8
-3 15 -1 15 4 0 6 -4 10 -9 10 -11 0 -7 35 8 73 14 36 14 37 -2 37 -8 0 -21
-8 -30 -18z"/>
<path d="M2171 2014 c0 -11 3 -14 6 -6 3 7 2 16 -1 19 -3 4 -6 -2 -5 -13z"/>
<path d="M2128 1989 c-8 -20 7 -55 26 -62 20 -8 20 -9 -2 37 -12 24 -21 33
-24 25z"/>
<path d="M2901 1970 c14 -31 19 -36 19 -24 0 6 -7 19 -16 30 -14 18 -14 18 -3
-6z"/>
<path d="M1981 1924 c-22 -28 -36 -63 -28 -70 2 -3 15 12 28 33 13 21 27 44
32 51 15 23 -12 12 -32 -14z"/>
<path d="M2165 1900 c3 -5 13 -10 21 -10 8 0 12 5 9 10 -3 6 -13 10 -21 10 -8
0 -12 -4 -9 -10z"/>
<path d="M3834 1800 c0 -52 1 -74 3 -47 2 26 2 68 0 95 -2 26 -3 4 -3 -48z"/>
<path d="M4596 1874 c-5 -14 -4 -15 9 -4 17 14 19 20 6 20 -5 0 -12 -7 -15
-16z"/>
<path d="M2960 1856 c0 -2 8 -10 18 -17 15 -13 16 -12 3 4 -13 16 -21 21 -21
13z"/>
<path d="M1000 1830 c-14 -10 -21 -22 -17 -26 4 -4 17 3 28 15 27 29 21 35
-11 11z"/>
<path d="M1961 1810 c-13 -11 -21 -20 -18 -20 14 0 57 24 57 32 0 13 -13 9
-39 -12z"/>
<path d="M2014 1805 c-10 -8 -14 -15 -8 -15 6 0 17 7 24 15 16 19 9 19 -16 0z"/>
<path d="M4550 1800 c-6 -11 -8 -20 -6 -20 3 0 10 9 16 20 6 11 8 20 6 20 -3
0 -10 -9 -16 -20z"/>
<path d="M2047 1803 c-4 -3 -7 -11 -7 -17 0 -6 5 -5 12 2 6 6 9 14 7 17 -3 3
-9 2 -12 -2z"/>
<path d="M2148 1803 c-10 -2 -18 -9 -18 -14 0 -13 13 -11 36 6 19 14 14 17
-18 8z"/>
<path d="M790 1789 c0 -11 27 -12 34 -1 2 4 -4 9 -15 9 -10 1 -19 -2 -19 -8z"/>
<path d="M850 1789 c0 -5 5 -7 10 -4 6 3 10 8 10 11 0 2 -4 4 -10 4 -5 0 -10
-5 -10 -11z"/>
<path d="M2095 1708 c-4 -10 -4 -26 0 -35 8 -17 8 -17 12 0 3 9 3 25 0 35 -4
16 -4 16 -12 0z"/>
<path d="M1147 1692 c-10 -10 -17 -22 -17 -27 0 -5 -7 -17 -17 -27 -9 -10 -12
-18 -6 -18 11 0 67 79 60 86 -2 2 -11 -4 -20 -14z"/>
<path d="M1974 1688 l-19 -23 23 19 c12 11 22 21 22 23 0 8 -8 2 -26 -19z"/>
<path d="M1860 1654 c-14 -8 -18 -14 -10 -13 8 0 26 6 40 14 14 8 18 14 10 14
-8 -1 -26 -7 -40 -15z"/>
<path d="M2041 1652 c0 -13 -5 -21 -10 -17 -5 3 -12 -3 -15 -13 -3 -10 -16
-18 -27 -19 -24 -2 -35 -10 -26 -19 4 -4 13 -2 20 4 8 7 17 9 21 5 12 -12 47
37 43 60 -4 22 -4 22 -6 -1z"/>
<path d="M2468 1643 c6 -2 18 -2 25 0 6 3 1 5 -13 5 -14 0 -19 -2 -12 -5z"/>
<path d="M1156 1595 c-28 -37 -25 -45 9 -19 11 8 21 24 21 34 2 26 1 26 -30
-15z"/>
<path d="M2391 1586 c2 -2 21 -6 42 -10 27 -5 37 -4 32 3 -3 6 -22 11 -42 11
-20 0 -34 -2 -32 -4z"/>
<path d="M3222 1574 c10 -10 20 -16 22 -13 3 3 -5 11 -17 18 -21 13 -21 12 -5
-5z"/>
<path d="M2481 1562 c-1 -7 6 -27 15 -43 8 -17 13 -33 11 -36 -3 -2 4 -14 14
-24 22 -22 79 -23 87 -1 2 7 -2 10 -12 6 -10 -4 -18 0 -22 10 -3 9 -10 14 -14
11 -4 -3 -11 6 -14 20 -4 14 -12 25 -20 25 -7 0 -21 10 -29 23 -9 12 -16 16
-16 9z"/>
<path d="M3823 1470 c0 -30 2 -43 4 -27 2 15 2 39 0 55 -2 15 -4 2 -4 -28z"/>
<path d="M1086 1464 c-18 -26 -18 -26 3 -15 11 7 21 18 21 26 0 20 -2 19 -24
-11z"/>
<path d="M2127 1469 c7 -7 15 -10 18 -7 3 3 -2 9 -12 12 -14 6 -15 5 -6 -5z"/>
<path d="M1530 1441 c0 -17 2 -31 4 -31 8 0 13 51 5 56 -5 3 -9 -9 -9 -25z"/>
<path d="M4070 1444 l-25 -15 25 7 c14 3 32 10 40 15 13 7 13 8 0 8 -8 0 -26
-6 -40 -15z"/>
<path d="M2138 1438 c5 -5 16 -8 23 -6 8 3 3 7 -10 11 -17 4 -21 3 -13 -5z"/>
<path d="M3310 1420 c8 -5 20 -10 25 -10 6 0 3 5 -5 10 -8 5 -19 10 -25 10 -5
0 -3 -5 5 -10z"/>
<path d="M1439 1415 c-1 -5 -1 -17 0 -26 1 -9 -5 -19 -14 -22 -8 -4 -15 -11
-15 -17 0 -6 5 -8 12 -4 7 4 8 3 4 -5 -4 -6 -11 -9 -16 -6 -4 3 -13 -2 -20
-10 -7 -9 -29 -23 -49 -33 -27 -12 -31 -18 -18 -20 62 -12 157 91 127 138 -5
8 -10 11 -11 5z"/>
<path d="M3365 1400 c27 -12 43 -12 25 0 -8 5 -22 9 -30 9 -10 0 -8 -3 5 -9z"/>
<path d="M3858 1403 c18 -2 45 -2 60 0 15 2 0 4 -33 4 -33 0 -45 -2 -27 -4z"/>
<path d="M2268 1393 c7 -3 16 -2 19 1 4 3 -2 6 -13 5 -11 0 -14 -3 -6 -6z"/>
<path d="M1503 1333 c-12 -26 -21 -49 -19 -50 5 -5 47 78 44 87 -2 6 -13 -11
-25 -37z"/>
<path d="M4013 1350 c-34 -14 -28 -21 7 -9 17 6 30 13 30 15 0 6 -12 4 -37 -6z"/>
<path d="M3560 1346 c0 -2 9 -6 20 -9 11 -3 18 -1 14 4 -5 9 -34 13 -34 5z"/>
<path d="M3628 1333 c6 -2 18 -2 25 0 6 3 1 5 -13 5 -14 0 -19 -2 -12 -5z"/>
<path d="M3928 1333 c6 -2 18 -2 25 0 6 3 1 5 -13 5 -14 0 -19 -2 -12 -5z"/>
<path d="M3708 1323 c17 -2 47 -2 65 0 17 2 3 4 -33 4 -36 0 -50 -2 -32 -4z"/>
<path d="M3848 1323 c12 -2 32 -2 45 0 12 2 2 4 -23 4 -25 0 -35 -2 -22 -4z"/>
<path d="M1097 1293 c-4 -3 -7 -11 -7 -17 0 -6 5 -5 12 2 6 6 9 14 7 17 -3 3
-9 2 -12 -2z"/>
<path d="M1170 1225 c-7 -9 -8 -15 -2 -15 5 0 12 7 16 15 3 8 4 15 2 15 -2 0
-9 -7 -16 -15z"/>
<path d="M1232 1167 c-45 -36 -53 -65 -41 -134 7 -38 6 -50 -12 -74 -29 -41
-42 -91 -26 -101 36 -23 105 -3 151 44 10 10 29 21 44 25 15 3 30 11 34 17 4
6 8 64 8 128 0 105 -2 117 -17 116 -10 0 -37 2 -60 6 -36 5 -46 2 -81 -27z"/>
<path d="M2077 1120 c5 -19 4 -19 -36 -3 -34 13 -48 14 -81 4 -75 -22 -85
-102 -21 -165 55 -54 109 -55 153 -2 44 53 1 134 -58 107 -14 -6 -31 -11 -39
-11 -24 0 -17 28 8 33 15 4 12 5 -8 4 -39 -3 -46 -32 -11 -48 19 -9 33 -9 49
-2 46 21 68 -22 33 -66 -41 -53 -136 -5 -136 70 0 33 4 39 37 54 35 17 38 17
69 0 17 -9 40 -15 50 -13 26 5 29 34 6 47 -17 9 -19 8 -15 -9z"/>
<path d="M3730 1131 c0 -4 -11 -6 -25 -3 -23 4 -25 1 -25 -31 0 -37 -23 -69
-33 -43 -3 8 -15 12 -29 9 -22 -4 -24 -10 -26 -68 -2 -68 9 -83 43 -59 17 12
17 14 2 14 -13 0 -17 9 -17 40 0 28 4 40 14 40 8 0 22 3 32 7 15 6 16 -1 12
-75 -3 -45 -1 -82 3 -82 13 0 19 31 19 95 0 35 5 67 10 70 6 4 4 12 -5 21 -18
19 -20 47 -2 41 6 -2 20 0 30 5 18 9 23 28 7 28 -5 0 -10 -4 -10 -9z"/>
<path d="M2244 1123 c-19 -4 -22 -12 -26 -86 -6 -88 -1 -97 42 -96 25 0 25 0
3 9 -31 13 -34 80 -4 80 12 0 23 -11 29 -30 13 -37 8 -67 -18 -102 -25 -34
-12 -37 17 -5 27 29 36 61 29 100 -10 50 -30 71 -55 58 -19 -11 -20 -9 -14 21
3 18 10 39 16 46 5 6 8 11 6 11 -2 -1 -14 -4 -25 -6z"/>
<path d="M3270 1117 c-31 -16 -38 -58 -13 -77 15 -12 16 -12 6 0 -30 33 -3 70
50 70 13 0 42 -16 65 -36 36 -30 42 -41 42 -73 0 -25 -7 -44 -20 -56 -18 -17
-21 -17 -61 4 -47 25 -93 22 -87 -6 2 -9 9 -18 16 -21 7 -2 10 2 6 12 -8 20
16 21 42 1 29 -22 69 -18 103 11 51 43 37 99 -39 161 -24 19 -83 25 -110 10z"/>
<path d="M3763 1111 c-17 -17 -21 -32 -21 -93 0 -68 2 -74 24 -85 16 -7 24 -8
24 -1 0 6 7 16 16 23 13 9 15 21 10 58 -8 51 -8 52 -37 37 -16 -9 -19 -7 -19
11 0 12 7 31 17 41 23 25 11 32 -14 9z m35 -129 c-2 -16 -9 -27 -18 -27 -19 0
-23 25 -10 61 10 26 13 27 21 11 6 -10 9 -30 7 -45z"/>
<path d="M3999 1117 c-11 -9 -15 -32 -15 -97 1 -75 7 -99 27 -100 3 0 4 25 1
55 -4 44 -2 55 11 55 32 0 36 -60 6 -109 -32 -53 -13 -49 20 5 36 57 37 59 11
101 -13 22 -25 31 -35 27 -18 -7 -22 35 -4 53 15 15 -3 24 -22 10z"/>
<path d="M3865 1110 c-3 -5 1 -10 9 -10 9 0 16 5 16 10 0 6 -4 10 -9 10 -6 0
-13 -4 -16 -10z"/>
<path d="M3910 1111 c0 -6 5 -13 10 -16 6 -3 10 1 10 9 0 9 -4 16 -10 16 -5 0
-10 -4 -10 -9z"/>
<path d="M3310 1065 c-10 -12 -10 -19 -2 -27 7 -7 12 -23 12 -37 0 -20 3 -22
12 -13 9 9 10 19 1 41 -8 21 -8 32 0 40 8 8 8 11 0 11 -6 0 -16 -7 -23 -15z"/>
<path d="M2145 1059 c-14 -22 -16 -95 -2 -113 14 -19 47 -17 47 3 0 6 -6 8
-14 5 -15 -6 -26 26 -22 66 2 19 8 24 24 22 12 -2 22 1 22 6 0 12 -49 22 -55
11z"/>
<path d="M2335 1007 c0 -64 6 -77 40 -77 18 1 19 1 3 11 -22 12 -25 84 -4 92
10 4 15 -7 20 -39 7 -55 24 -74 53 -63 26 10 37 40 29 85 -8 41 -19 49 -37 27
-8 -9 -9 -14 -2 -10 17 10 28 -50 13 -68 -18 -22 -27 -10 -35 45 -6 47 -8 50
-31 44 -13 -4 -30 -2 -37 4 -9 8 -12 -3 -12 -51z"/>
<path d="M2775 1061 c2 -5 -7 -13 -20 -19 -30 -14 -40 -48 -25 -86 6 -16 8
-36 5 -45 -7 -24 28 -43 60 -31 14 5 25 13 24 17 -1 5 -1 10 0 13 1 3 3 35 4
71 3 64 2 67 -25 77 -16 6 -26 7 -23 3z m25 -67 c0 -31 -3 -35 -22 -32 -29 4
-37 46 -12 65 24 17 34 8 34 -33z m3 -85 c-6 -20 -38 -26 -48 -8 -4 5 3 19 16
30 25 21 40 11 32 -22z"/>
<path d="M4157 1063 c-4 -4 -19 -7 -32 -8 -14 0 -25 -3 -25 -7 0 -5 0 -33 0
-63 0 -41 4 -55 14 -55 10 0 13 10 9 38 -3 24 1 44 10 57 15 20 16 19 22 -8 4
-15 5 -39 3 -52 -4 -19 -1 -25 12 -25 14 0 17 8 15 43 -3 49 -18 91 -28 80z"/>
<path d="M2534 1053 c-17 -3 -22 -12 -22 -41 0 -20 -2 -46 -4 -57 -2 -16 3
-21 28 -23 48 -5 61 23 52 111 -1 17 -11 19 -54 10z m36 -57 c0 -33 -23 -66
-34 -48 -3 5 -3 25 1 45 7 48 33 50 33 3z"/>
<path d="M2636 1041 c-12 -14 -16 -32 -14 -67 3 -46 4 -47 38 -49 49 -2 65 4
46 19 -11 8 -13 21 -7 54 7 36 6 44 -10 52 -25 14 -34 13 -53 -9z m46 -51 c-3
-31 -8 -40 -21 -38 -20 4 -26 49 -11 78 18 33 36 9 32 -40z"/>
<path d="M2866 1034 c-30 -31 -30 -30 -15 -73 11 -31 13 -32 56 -27 40 4 73
16 45 16 -8 0 -12 18 -12 49 0 35 -4 51 -16 55 -25 9 -30 8 -58 -20z m46 -40
c-3 -34 -8 -44 -20 -42 -23 4 -33 52 -16 77 23 33 40 17 36 -35z"/>
<path d="M2965 1050 c-3 -5 -1 -11 5 -15 5 -3 8 -24 7 -46 -3 -29 1 -42 12
-48 19 -10 41 -4 41 11 0 6 -7 8 -15 4 -12 -4 -15 3 -15 34 0 34 3 40 21 40
11 0 19 5 17 11 -5 14 -66 20 -73 9z"/>
<path d="M3071 1034 c-22 -28 -25 -44 -14 -82 5 -20 11 -23 33 -19 15 3 32 1
38 -5 5 -5 15 -7 21 -3 8 4 6 11 -4 22 -9 8 -14 23 -11 32 16 58 16 71 2 71
-8 0 -21 3 -29 6 -9 3 -23 -6 -36 -22z m44 -38 c-4 -17 -13 -37 -20 -45 -11
-11 -14 -8 -20 17 -8 37 9 74 31 65 11 -4 13 -14 9 -37z"/>
<path d="M3503 1048 c-17 -8 -23 -21 -24 -45 -1 -18 -2 -39 -3 -45 -1 -7 11
-17 26 -22 23 -8 30 -6 46 14 20 25 21 37 8 83 -9 29 -18 32 -53 15z m31 -24
c9 -24 7 -39 -9 -60 -13 -18 -14 -15 -15 29 0 46 12 62 24 31z"/>
<path d="M3860 1058 c-1 -2 -3 -28 -6 -58 -5 -63 11 -85 49 -70 12 5 31 11 42
15 12 4 15 9 9 13 -20 13 -25 59 -9 76 21 21 19 26 -11 26 -14 0 -23 -4 -19
-10 3 -6 3 -31 -1 -56 -5 -34 -10 -44 -23 -42 -13 3 -15 14 -13 56 3 33 0 52
-7 52 -6 0 -11 -1 -11 -2z"/>
<path d="M4239 1043 c-8 -10 -15 -36 -14 -57 0 -34 4 -41 29 -49 21 -7 32 -6
44 7 14 14 12 15 -21 9 -20 -3 -37 -3 -37 1 0 4 13 21 30 39 27 29 28 33 13
49 -20 22 -26 22 -44 1z m21 -18 c0 -8 -4 -15 -10 -15 -5 0 -10 7 -10 15 0 8
5 15 10 15 6 0 10 -7 10 -15z"/>
<path d="M1014 876 c-3 -9 -10 -14 -14 -11 -4 3 -10 -2 -14 -10 -9 -23 22 -18
34 6 7 11 9 23 6 26 -3 3 -8 -2 -12 -11z"/>
<path d="M1303 823 c-7 -3 -13 -9 -13 -15 0 -6 7 -8 15 -4 8 3 15 1 15 -4 0
-6 9 -10 19 -10 11 0 33 -14 50 -31 30 -30 61 -35 68 -13 2 7 -8 14 -22 18
-14 4 -25 13 -25 20 0 8 -13 17 -30 21 -16 4 -30 10 -30 14 0 8 -29 11 -47 4z"/>
<path d="M3998 784 c-21 -11 -28 -22 -28 -44 0 -16 5 -32 10 -35 6 -3 10 3 10
14 0 32 11 51 30 51 23 0 38 -19 46 -58 7 -36 -17 -82 -43 -82 -9 0 2 -13 26
-30 24 -18 47 -28 54 -23 7 4 18 8 25 9 19 3 41 35 42 58 0 11 -7 27 -16 37
-14 15 -13 18 10 37 24 19 38 50 16 37 -5 -3 -10 1 -10 9 0 17 -42 32 -59 21
-6 -3 -11 -14 -11 -23 0 -13 2 -14 8 -4 11 16 42 5 42 -14 0 -8 -7 -17 -15
-20 -19 -8 -19 -35 0 -60 22 -29 18 -53 -10 -60 -30 -8 -60 13 -45 31 5 6 11
33 13 58 4 42 1 51 -26 77 -35 34 -33 34 -69 14z"/>
<path d="M2023 780 c-36 -15 -47 -46 -29 -85 18 -37 21 -81 6 -90 -5 -3 -10 1
-10 10 0 21 -24 14 -28 -8 -3 -13 4 -17 27 -17 47 0 59 33 37 100 -20 62 -11
80 41 80 26 0 36 -5 40 -19 6 -23 33 -37 33 -16 0 19 -48 55 -74 54 -11 0 -31
-4 -43 -9z"/>
<path d="M2907 783 c-12 -11 -8 -36 9 -55 16 -16 16 -18 0 -24 -21 -8 -21 -71
0 -95 13 -14 20 -16 40 -7 20 10 24 18 24 57 0 41 -4 49 -36 75 -36 28 -36 40
1 49 16 4 15 5 -6 6 -14 0 -29 -2 -32 -6z m47 -126 c-2 -67 -27 -64 -29 4 -1
31 2 39 14 37 11 -3 16 -15 15 -41z"/>
<path d="M3143 783 c-12 -2 -29 -15 -37 -29 -15 -22 -15 -27 9 -74 29 -57 31
-76 9 -84 -22 -9 -24 -8 -24 10 0 9 -6 14 -12 12 -7 -3 -13 -11 -13 -19 0 -10
12 -14 40 -14 38 0 40 2 43 33 2 21 -6 49 -21 77 l-25 44 24 15 c35 23 79 20
97 -6 12 -18 16 -19 16 -7 1 32 -53 53 -106 42z"/>
<path d="M3403 773 c-20 -8 -18 -162 2 -170 20 -7 33 6 16 16 -10 6 -11 25 -4
85 5 42 7 76 4 75 -3 0 -12 -3 -18 -6z"/>
<path d="M2440 750 c0 -5 7 -10 15 -10 8 0 15 -6 15 -14 0 -9 -10 -13 -31 -12
-41 1 -60 -25 -36 -51 15 -18 15 -20 0 -36 -21 -20 -15 -26 31 -34 31 -5 37
-3 45 18 6 17 4 33 -6 53 -13 26 -13 30 7 48 17 16 19 23 9 34 -13 16 -49 19
-49 4z m0 -70 c0 -5 -7 -7 -15 -4 -8 4 -12 10 -9 15 6 11 24 2 24 -11z m23
-43 c8 -22 -7 -37 -31 -30 -22 5 -22 6 -5 24 22 22 29 23 36 6z"/>
<path d="M2518 733 c-9 -18 -12 -48 -8 -83 4 -50 7 -55 30 -58 22 -2 23 -1 8
8 -27 16 -24 75 4 94 l22 16 -23 0 c-20 0 -22 4 -17 25 8 33 0 32 -16 -2z"/>
<path d="M2044 734 c-19 -15 -19 -15 2 -9 15 4 24 0 28 -11 4 -9 5 -18 4 -19
-2 -1 -12 -7 -23 -13 -17 -10 -17 -11 -3 -12 11 0 19 -11 24 -34 8 -44 34 -57
34 -18 0 16 -6 34 -12 40 -10 10 -10 17 0 33 11 18 11 24 -4 40 -21 23 -25 23
-50 3z"/>
<path d="M3183 743 c-9 -3 -9 -10 -1 -29 12 -26 23 -30 33 -14 8 14 -17 48
-32 43z"/>
<path d="M3453 735 c-9 -16 -2 -130 9 -141 4 -3 15 -3 25 0 17 7 17 8 1 17
-22 12 -26 99 -5 99 9 0 8 3 -2 9 -7 5 -10 14 -7 20 4 6 3 11 -3 11 -5 0 -14
-7 -18 -15z"/>
<path d="M2209 713 c0 -5 -1 -28 -2 -53 -2 -33 -6 -45 -17 -45 -11 0 -16 13
-18 48 -4 65 -28 64 -31 -2 -2 -57 10 -70 59 -66 19 2 40 4 45 5 6 0 4 4 -4 9
-10 7 -12 22 -8 60 5 41 3 51 -8 51 -8 0 -15 -3 -16 -7z"/>
<path d="M2305 712 l-40 -3 3 -57 c4 -62 18 -90 36 -72 7 7 6 14 -2 22 -7 7
-12 27 -12 45 0 26 4 33 20 33 21 0 37 -38 26 -65 -4 -11 2 -15 22 -15 15 0
22 4 16 8 -6 4 -15 30 -20 57 l-9 50 -40 -3z"/>
<path d="M2715 708 c8 -21 -9 -91 -23 -96 -8 -2 -12 12 -12 47 0 39 -4 51 -15
51 -13 0 -15 -11 -13 -57 3 -57 3 -58 32 -55 16 2 32 -1 35 -7 4 -6 12 -6 20
-2 9 6 10 14 5 22 -5 8 -9 34 -9 58 0 26 -5 46 -13 48 -7 3 -10 -1 -7 -9z"/>
<path d="M2775 702 c3 -7 5 -36 5 -63 0 -40 3 -47 16 -42 13 5 15 16 11 49 -3
29 0 47 8 54 18 15 23 3 21 -52 -1 -37 2 -48 14 -48 11 0 15 12 15 49 0 27 -4
53 -8 58 -5 4 -26 8 -48 9 -30 0 -38 -3 -34 -14z"/>
<path d="M3517 714 c-4 -4 -4 -17 -1 -29 3 -13 6 -38 7 -56 2 -32 3 -33 46
-34 29 0 46 5 49 14 3 9 0 11 -8 6 -10 -6 -12 5 -8 49 4 42 1 56 -9 56 -7 0
-13 -12 -14 -27 -1 -16 -2 -32 -4 -38 -1 -5 -3 -16 -3 -22 -1 -7 -6 -13 -12
-13 -5 0 -10 23 -10 50 0 35 -4 50 -13 50 -8 0 -17 -3 -20 -6z"/>
<path d="M3650 719 c-7 -55 -3 -120 8 -124 22 -8 42 -6 42 5 0 6 -6 10 -13 10
-9 0 -13 14 -12 40 0 33 3 39 18 34 11 -3 17 0 17 10 0 9 -6 16 -14 16 -8 0
-21 3 -30 6 -9 3 -16 5 -16 3z"/>
<path d="M3827 709 c-22 -13 -25 -107 -2 -115 24 -10 37 5 20 23 -15 14 -14
17 5 30 37 26 16 83 -23 62z m13 -35 c0 -8 -4 -12 -10 -9 -5 3 -10 10 -10 16
0 5 5 9 10 9 6 0 10 -7 10 -16z"/>
<path d="M1260 699 c0 -6 9 -22 20 -36 11 -14 20 -36 20 -49 0 -22 16 -41 26
-31 3 2 7 20 10 38 4 31 1 37 -36 61 -22 15 -40 23 -40 17z"/>
<path d="M3255 655 c0 -30 2 -56 5 -56 3 -1 26 -3 53 -4 47 -2 70 8 42 19 -10
4 -15 20 -15 51 0 25 -4 45 -10 45 -12 0 -23 -40 -18 -71 2 -15 -3 -25 -13
-27 -14 -2 -15 5 -11 48 4 44 2 50 -14 50 -16 0 -19 -8 -19 -55z"/>
<path d="M3175 673 c4 -10 11 -32 16 -50 11 -37 26 -50 41 -35 8 8 7 16 -2 28
-8 9 -15 23 -16 31 -3 18 -24 43 -36 43 -6 0 -7 -8 -3 -17z"/>
<path d="M1375 639 c-4 -6 -5 -12 -2 -15 2 -3 7 2 10 11 7 17 1 20 -8 4z"/>
<path d="M3916 611 c-4 -7 -5 -15 -2 -18 9 -9 19 4 14 18 -4 11 -6 11 -12 0z"/>
<path d="M1110 605 c0 -14 21 -45 31 -45 18 0 5 45 -13 48 -10 2 -18 1 -18 -3z"/>
<path d="M4200 595 c0 -8 7 -15 15 -15 8 0 15 7 15 15 0 8 -7 15 -15 15 -8 0
-15 -7 -15 -15z"/>
<path d="M2165 3500 c3 -6 -1 -7 -9 -4 -21 8 -31 -21 -18 -49 10 -22 10 -21
17 6 5 18 12 26 21 23 16 -6 17 -4 8 18 -3 9 -10 16 -16 16 -5 0 -6 -4 -3 -10z"/>
<path d="M2011 3344 c0 -11 3 -14 6 -6 3 7 2 16 -1 19 -3 4 -6 -2 -5 -13z"/>
<path d="M1750 3269 c0 -5 5 -7 10 -4 6 3 10 8 10 11 0 2 -4 4 -10 4 -5 0 -10
-5 -10 -11z"/>
<path d="M1780 3239 c0 -5 5 -7 10 -4 6 3 10 8 10 11 0 2 -4 4 -10 4 -5 0 -10
-5 -10 -11z"/>
</g>
</svg>
